<?xml version="1.0" encoding="UTF-8"?><svg id="Layer_2" xmlns="http://www.w3.org/2000/svg" viewBox="0 0 331.52 313.57"><defs><style>.cls-1{fill:#040608;}.cls-1,.cls-2{stroke-width:0px;}.cls-2{fill:#139aed;}</style></defs><g id="Layer_1-2"><path class="cls-2" d="M0,156.74c.08-16.62,2.45-32.89,8.01-48.57,2.84-8.01,6-15.95,10.29-23.33,3.19-5.48,6.26-11.05,10.12-16.1,3.44-4.5,6.74-9.12,10.64-13.24,3.34-3.53,6.56-7.19,10.22-10.39,3.44-3.02,6.75-6.21,10.41-8.96,3.4-2.56,6.78-5.16,10.33-7.51,6.41-4.23,13.04-8.1,19.96-11.44,10.27-4.95,20.93-8.9,31.97-11.74,11.08-2.85,22.34-4.61,33.78-5.2,13.14-.68,26.2-.07,39.19,2.13,10.37,1.75,20.48,4.42,30.36,8.02,7.3,2.66,14.38,5.8,21.24,9.44,7.19,3.81,14.04,8.1,20.62,12.9,3.71,2.71,7.17,5.68,10.71,8.59,3.67,3.02,6.9,6.48,10.3,9.78,3.82,3.71,7.03,7.93,10.45,11.97,3.92,4.62,7.02,9.77,10.35,14.79,4.22,6.37,7.28,13.29,10.45,20.19,5.22,11.38,8.05,23.41,10.24,35.66,1.69,9.43,2.05,18.9,1.84,28.42-.09,4.3-.32,8.61-1,12.86-2.07,12.9-4.67,25.7-9.85,37.78-3.13,7.3-6.35,14.6-10.62,21.32-3.23,5.08-6.34,10.26-10.18,14.92-3.4,4.12-6.62,8.4-10.41,12.17-3.39,3.37-6.61,6.93-10.29,9.97-3.43,2.84-6.71,5.88-10.34,8.47-3.43,2.45-6.84,4.95-10.41,7.19-6.7,4.22-13.63,8.06-20.86,11.3-6.68,2.99-13.49,5.64-20.49,7.78-10.21,3.11-20.62,5.27-31.22,6.52-9.29,1.09-18.62,1.32-27.95.94-11.51-.47-22.87-2.12-34.07-4.9-7.23-1.8-14.3-4.03-21.23-6.75-7.04-2.77-13.87-5.94-20.5-9.6-3.63-2-7.1-4.26-10.62-6.43-3.67-2.26-7-4.98-10.49-7.49-3.66-2.64-6.91-5.76-10.32-8.68-3.58-3.07-6.69-6.59-9.98-9.95-3.96-4.03-7.27-8.57-10.75-12.99-4.03-5.1-7.18-10.74-10.52-16.27-4.38-7.27-7.43-15.1-10.51-22.96-4.49-11.43-6.74-23.34-8.08-35.47-.56-5.04-.75-10.11-.76-15.18ZM162.67,308.11c6.42.06,12.2-.16,17.98-.65,12.39-1.05,24.47-3.57,36.32-7.28,7.1-2.23,13.98-5.05,20.7-8.23,7.17-3.39,14.01-7.37,20.61-11.75,3.61-2.4,7.04-5.06,10.5-7.68,3.62-2.75,6.86-5.95,10.27-8.94,3.8-3.35,7.04-7.27,10.49-10.97,3.76-4.03,6.86-8.6,10.12-13.02,4.01-5.44,7.2-11.42,10.38-17.36,4.46-8.31,7.67-17.19,10.27-26.21,5.07-17.53,6.51-35.45,4.67-53.61-.93-9.2-2.54-18.24-5.43-27.07-2.95-9.03-6.11-17.93-10.81-26.23-3.16-5.59-6.19-11.25-10.1-16.39-3.4-4.47-6.58-9.1-10.49-13.19-3.44-3.6-6.64-7.42-10.44-10.67-3.5-3-6.79-6.25-10.55-8.97-3.42-2.46-6.73-5.08-10.27-7.39-6.71-4.38-13.68-8.26-20.94-11.65-6.64-3.1-13.46-5.69-20.45-7.88-11.63-3.65-23.52-5.89-35.66-6.93-10.05-.86-20.09-.78-30.12.14-12.98,1.2-25.64,3.93-37.98,8.1-7.32,2.48-14.42,5.49-21.32,8.95-7.09,3.55-13.82,7.72-20.34,12.21-3.91,2.69-7.51,5.78-11.23,8.72-3.41,2.69-6.35,5.9-9.55,8.84-3.79,3.48-6.96,7.56-10.35,11.42-3.87,4.42-7.03,9.39-10.32,14.23-4.11,6.06-7.31,12.67-10.41,19.28-4.78,10.19-7.71,21.02-10.07,31.99-1.78,8.28-2.48,16.7-2.51,25.15-.04,10.45.74,20.81,3.14,31.06,2.56,10.9,5.56,21.6,10.58,31.68,3.17,6.37,6.28,12.74,10.38,18.59,3.46,4.93,6.74,9.98,10.79,14.48,3.33,3.7,6.47,7.56,10.16,10.94,3.41,3.11,6.61,6.44,10.3,9.26,3.48,2.65,6.79,5.52,10.48,7.91,3.44,2.22,6.76,4.62,10.36,6.6,3.56,1.95,7.05,4,10.72,5.76,6.64,3.19,13.41,6.02,20.41,8.31,6.88,2.25,13.86,4.07,20.98,5.45,9.7,1.89,19.48,2.81,28.72,3.01Z"/><path class="cls-2" d="M166.28,258.58c-11.2-.06-21.68-1.45-31.95-4.41-7.17-2.06-14.03-4.85-20.66-8.28-3.87-2-7.48-4.38-11.12-6.74-3.73-2.41-7-5.38-10.41-8.18-3.81-3.14-6.95-6.89-10.26-10.5-4.05-4.41-7.14-9.47-10.29-14.52-5.32-8.53-8.37-17.89-10.89-27.53-2.28-8.74-2.71-17.58-2.42-26.5.16-4.86.67-9.72,1.83-14.45,2.33-9.45,5.11-18.77,10.03-27.25,3.12-5.37,6.32-10.75,10.43-15.45,3.17-3.62,6.28-7.33,9.91-10.51,3.48-3.04,6.93-6.12,10.74-8.75,6.45-4.47,13.24-8.39,20.49-11.42,9.19-3.85,18.74-6.46,28.64-7.8,7.16-.97,14.35-1.19,21.54-.86,7.48.35,14.85,1.5,22.11,3.4,7.49,1.96,14.71,4.59,21.65,8.05,3.43,1.71,6.68,3.69,9.96,5.64,3.61,2.15,6.82,4.81,10.14,7.35,3.79,2.9,7.03,6.34,10.39,9.69,4.18,4.18,7.49,8.99,10.88,13.78,4.61,6.53,7.67,13.78,10.53,21.18,4.72,12.23,6.02,24.93,5.47,37.88-.36,8.48-1.74,16.84-4.6,24.83-2.71,7.59-5.77,15.1-10.32,21.82-3.15,4.65-6.25,9.37-10.16,13.43-3.34,3.47-6.57,7.07-10.35,10.08-3.27,2.6-6.48,5.28-9.99,7.56-6.75,4.41-13.85,8.15-21.37,11.04-9.01,3.46-18.34,5.65-27.93,6.74-4.16.47-8.34.62-11.99.68ZM165.82,255.18c6.16-.09,12.4-.57,18.6-1.64,11.46-1.98,22.28-5.8,32.57-11.19,3.49-1.83,6.76-4.04,10.06-6.19,3.81-2.48,7.2-5.53,10.64-8.48,3.7-3.16,6.85-6.89,10.05-10.54,4.14-4.73,7.37-10.13,10.48-15.56,5.05-8.79,7.77-18.46,9.96-28.28.96-4.32,1.31-8.75,1.4-13.17.15-7.28-.28-14.48-1.95-21.64-2.28-9.79-5.24-19.26-10.49-27.93-3.17-5.23-6.34-10.41-10.46-14.98-3.36-3.73-6.64-7.51-10.55-10.71-3.39-2.78-6.68-5.65-10.4-8.01-3.7-2.34-7.38-4.69-11.31-6.67-5.91-2.97-12.02-5.44-18.36-7.25-13.12-3.74-26.49-5.02-40.12-3.82-12.01,1.06-23.49,4.06-34.5,8.9-7.2,3.16-13.89,7.25-20.24,11.87-3.93,2.87-7.47,6.22-11,9.55-3.57,3.37-6.56,7.28-9.59,11.11-4.25,5.38-7.46,11.45-10.39,17.6-4.09,8.59-6.44,17.73-7.57,27.18-.99,8.23-1,16.46.19,24.66,1.4,9.71,3.94,19.08,8.54,27.83,3.05,5.8,6.12,11.56,10.31,16.66,3.32,4.04,6.54,8.13,10.46,11.63,3.39,3.02,6.74,6.06,10.45,8.72,6.63,4.74,13.64,8.75,21.18,11.89,6.51,2.71,13.21,4.77,20.12,6.2,7.2,1.49,14.47,2.12,21.92,2.24Z"/><path class="cls-2" d="M132.06,287.38c1.28-.06,2.09.31,2.03,1.84-.04.98.21,1.96.33,2.94-.38-.1-.76-.26-1.15-.28-.71-.05-.93-.41-.96-1.07-.05-1.14-.17-2.29-.26-3.43Z"/><path class="cls-2" d="M43.44,160.29c-.95-.39-1.62-.16-2.25.7-.81,1.12-1.79,2.12-2.69,3.18-.57.67-1.26.55-1.98.33-.65-.77-.53-1.49.08-2.23.55-.66,1.05-1.36,1.6-2.07-.5-.21-.89-.13-1.27.11-.65-.64-1.26-.5-1.83.1-.96,1.03-1.94,2.04-2.84,3.13-.67.81-1.43,1.11-2.44.81-.32-.7-.62-1.38.02-2.09,1.46-1.61,2.81-3.33,4.48-4.75,3.66.01,7.31,0,10.97.06,1.41.03,2.04.74,2.05,2.15,0,1.64.21,3.29-.18,4.93-.87,3.61-3.67,5.88-7.38,5.9-4.78.02-9.57.02-14.35.01-.46,0-.98.17-1.36-.26-.73-.2-1.49-.32-2.19-.6-3.08-1.25-4.89-2.83-4.93-5.55-.06-3.77-.09-7.55-.15-11.32-.07-4.46,2.48-7.65,6.81-8.62.28-.22.61-.17.92-.17,4.49,0,8.98-.04,13.47.03,2.68.04,5.27.52,7.4,2.36,1,.86,1.66,1.93,2.08,3.17.24.7.11,1.06-.68,1.07-.63,0-1.27.25-1.88-.08-.77-2.49-3.55-4.14-6.24-3.7-2.47-.51-4.96-.2-7.44-.26-1.85-.04-3.69-.01-5.54,0-3.63,0-5.81,2.02-5.89,5.7-.09,3.57.02,7.14.05,10.71.03,2.77,1.89,4.57,4.71,4.55.4.13.79.3,1.29.12-1.45-1.68-1.83-3.62-1.77-5.74.07-2.48,0-4.97.02-7.45,0-1.89.4-2.53,2.14-3.54,1.83-.32,3.68-.09,5.52-.13,1.85-.04,3.69,0,5.54-.01.89,0,1.55.31,1.56,1.26,0,.96-.7,1.28-1.56,1.28-3.05,0-6.1.03-9.15,0-.97-.01-1.36.26-1.34,1.3.06,2.77.16,5.55-.02,8.31-.16,2.28,2.84,5.26,5.1,5.08,2.51-.2,5.04,0,7.57,0,.22,0,.45-.12.67-.18,1.67.02,2.88-.75,3.75-2.13.89-1.4.86-2.95.88-4.52,0-1.07-.38-1.29-1.29-.88Z"/><path class="cls-1" d="M291,144.16c-1.03.44-2.16.62-3.1,1.26-2.32,1.57-3.39,3.86-3.44,6.56-.07,4.13-.01,8.27.08,12.41.05,2.21,1.86,4.29,4.19,5.08.94.32,1.9.59,2.86.88-2.13-.18-4.21-.54-6.02-1.8-1.62-1.12-2.56-2.61-2.57-4.64-.02-3.78-.12-7.55-.1-11.33.02-5.08,3-8.13,8.09-8.41Z"/><path class="cls-1" d="M23.6,144.2c-4.32.98-6.87,4.16-6.81,8.62.06,3.77.09,7.55.15,11.32.05,2.72,1.86,4.29,4.93,5.55.7.28,1.46.4,2.19.6-2.61-.2-5.02-.89-6.96-2.76-.77-.74-1.36-1.68-1.37-2.74-.04-4.5-.41-8.99-.06-13.49.34-4.31,3.58-6.92,7.93-7.11Z"/><path class="cls-1" d="M293.52,150.91c-1.53.94-1.91,2.34-1.83,4.06.1,2.21.09,4.42,0,6.63-.08,2.23.12,4.34,1.79,6.11-.76.11-1.32-.05-1.83-.4-.08,0-.16.01-.24.02,0,0,.09-.02.09-.02-1.22-1.86-1.44-3.91-1.35-6.08.09-2.32.01-4.66.02-6.98,0-2.19,1.14-3.31,3.34-3.34Z"/><path class="cls-1" d="M26.22,150.94c-1.74,1.01-2.13,1.65-2.14,3.54,0,2.49.05,4.97-.02,7.45-.06,2.12.32,4.07,1.77,5.74-.49.19-.89.01-1.29-.12-1.2-1.36-1.73-2.94-1.7-4.76.04-2.9-.02-5.79.02-8.69.02-2.13,1.23-3.24,3.36-3.18Z"/><path class="cls-1" d="M310.75,160.25c1.49-.27,1.52-.25,1.55,1.17.02,1.13.05,2.24-.39,3.32-.88,2.16-2.53,3.25-4.83,3.14,2.61-1.12,3.91-3.06,3.73-5.94-.03-.56-.04-1.12-.06-1.69Z"/><path class="cls-1" d="M301.87,157.5c-1.53,1.55-3.05,3.11-4.59,4.64-.67.66-.5,1.37-.17,2.1-.68.29-1.29.18-1.68-.44-.4-.65-.08-1.22.41-1.7,1.26-1.26,2.29-2.74,3.72-3.85.71-.55,1.44-.81,2.31-.75Z"/><path class="cls-1" d="M43.44,160.29c.91-.41,1.3-.19,1.29.88-.01,1.57.01,3.12-.88,4.52-.88,1.38-2.09,2.15-3.75,2.13,2.22-.94,3.2-2.72,3.35-5.03.05-.83,0-1.67,0-2.5Z"/><path class="cls-1" d="M34.33,157.5c-1.66,1.42-3.01,3.14-4.48,4.75-.64.71-.34,1.39-.02,2.09-.7.08-1.44.14-1.78-.63-.35-.79.13-1.4.71-1.87,1.23-.98,2.19-2.2,3.23-3.35.63-.7,1.39-1.04,2.34-.99Z"/><path class="cls-1" d="M304.26,160.3c.44-.28.91-.26,1.45-.16-.55,1.49-2.66,2.34-1.78,4.36-.68.23-1.28.12-1.64-.53-.33-.61-.04-1.13.37-1.61.55-.67,1.07-1.37,1.6-2.06Z"/><path class="cls-1" d="M305.82,146.79c2.45-.19,5.92,1.08,6.6,3.33.05.16.13.28.02.44-.82.19-1.31.09-1.79-.85-.96-1.88-2.79-2.67-4.84-2.92Z"/><path class="cls-1" d="M36.93,160.31c.38-.23.78-.32,1.27-.11-.55.71-1.05,1.41-1.6,2.07-.61.74-.73,1.46-.08,2.23-.58.53-.99.14-1.38-.26-.44-.46-.5-.99-.12-1.51.61-.82,1.26-1.62,1.9-2.43Z"/><path class="cls-1" d="M38.67,146.87c2.69-.44,5.46,1.21,6.24,3.7-.82.29-1.16-.02-1.53-.82-.93-2.02-2.8-2.73-4.86-3.05-.04,0-.08.02-.12.02.02.06.02.16.05.17.07.02.15-.01.22-.02Z"/><path class="cls-2" d="M304.26,160.3c-.66-.66-1.19-.33-1.69.21-.86.94-1.75,1.85-2.55,2.84-.8,1-1.73,1.33-2.92.89-.33-.73-.49-1.43.17-2.1,1.54-1.54,3.06-3.1,4.59-4.64,3.65.01,7.31,0,10.96.06,1.3.02,2.06.67,2.12,1.86.1,2.24.33,4.5-.66,6.64-1.29,2.77-3.46,4.38-6.48,4.45-5.14.12-10.28.05-15.43.06-.27,0-.57.05-.77-.22-.95-.29-1.91-.56-2.86-.88-2.34-.78-4.14-2.87-4.19-5.08-.09-4.13-.15-8.27-.08-12.41.05-2.7,1.12-4.99,3.44-6.56.94-.64,2.08-.82,3.1-1.26.04-.02.07-.06.11-.06,6.19.05,12.42-.72,18.56.59,2.49.53,4.29,2.1,5.28,4.5.5,1.22.41,1.36-.86,1.47-.55.05-1.12.21-1.64-.11.11-.15.02-.28-.02-.44-.68-2.26-4.15-3.53-6.6-3.33-4.49-.39-9-.33-13.49-.09-3.07.16-5.18,2.05-5.22,5.76-.05,3.94.04,7.87.15,11.81.05,1.68,2.34,3.24,4.25,3.04,0,0-.09.02-.09.02.02.05.04.11.06.16.06-.06.12-.12.18-.18.51.35,1.06.51,1.83.4-1.68-1.77-1.87-3.88-1.79-6.11.08-2.21.1-4.42,0-6.63-.08-1.72.3-3.12,1.83-4.06,1.91-.28,3.84-.07,5.76-.11,1.81-.04,3.62,0,5.42-.01.88,0,1.68.12,1.71,1.21.03,1.17-.84,1.32-1.74,1.32-2.97,0-5.95.04-8.92-.01-1.05-.02-1.43.32-1.41,1.38.05,2.69,0,5.38.02,8.08.03,3,2.27,5.19,5.25,5.18,2.49,0,4.98-.05,7.46-.07,2.3.11,3.95-.97,4.83-3.14.44-1.08.41-2.19.39-3.32-.03-1.42-.06-1.44-1.55-1.17-.96-.34-1.66-.08-2.24.78-.55.83-1.27,1.54-1.79,2.38-.69,1.09-1.53,1.56-2.79,1.09-.88-2.02,1.23-2.88,1.78-4.36-.54-.1-1.01-.12-1.45.16Z"/><path class="cls-2" d="M291.43,167.33c.08,0,.16-.01.24-.02-.06.06-.12.12-.18.18-.02-.05-.04-.11-.06-.16Z"/><path class="cls-1" d="M146.23,19.44c1.28-.04,2.77-.5,3.77.01.96.49.98,2.16,1.43,3.3.96,2.44,1.66,4.98,2.93,7.29.27.67.4,1.41.97,2.16,1.44-4.57,2.83-8.96,4.22-13.35,2.17-.13,2.13-.11,2.93,1.89,1.18,2.96,2.4,5.91,3.61,8.86.25.71.51,1.42.89,2.47,1.46-4.69,2.82-9.05,4.18-13.41,1.43,0,2.86,0,4.39,0-2.22,5.05-3.72,10.35-5.49,15.56-.18.53-.37,1.06-.55,1.59q-.92,2.69-3.8,2.56c-.78-2.87-2.45-5.37-3.35-8.19-.4-1.25-.95-2.45-1.49-3.81-.42.67-.59,1.27-.66,1.91-1.02,3.04-2.08,6.06-3.03,9.12-.31,1-.76,1.47-1.83,1.32-.47-.07-.96.02-1.44.04-.55-.11-.57-.62-.73-1.01-1.63-4.19-3.27-8.38-4.87-12.58-.73-1.91-1.62-3.75-2.1-5.75Z"/><path class="cls-1" d="M260.99,65.52c-3.03,1.34-6.1,2.61-9.08,4.07-1.18.58-1.97.48-2.74-.5-.25-.31-.53-.59-.8-.89,2.09-4.1,4.14-8.22,6.28-12.29,1.09-2.08,1.84-4.35,3.42-6.16.04.01.08.02.11.04.9.9,2.36,1.64,2.53,2.75.14.96-.89,2.13-1.47,3.16-1.34,2.41-2.73,4.81-4.09,7.21-.28.55-.55,1.09-.99,1.97,3.55-1.62,6.79-3.07,9.99-4.59,1.07-.51,2.23-.87,3.16-1.65,2.07.95,2.26,1.61.95,3.55-1.9,2.79-3.27,5.86-4.81,8.85-.28.45-.61.89-.72,1.6,1.88-.83,3.63-1.58,5.36-2.39,2.49-1.16,5.04-2.2,7.4-3.63,1.32.64,1.97,2.05,3.37,2.8-6.49,2.88-12.83,5.69-19.15,8.53-.62.28-1.02.26-1.45-.26-.47-.58-1.31-.78-1.65-1.51,2.43-3.52,4.04-7.47,5.86-11.37-.49.24-.99.47-1.48.71Z"/><path class="cls-1" d="M190.47,20.66c1.76.09,2.83.9,3.77,2.52,2.21,3.79,4.31,7.63,6.41,11.48.37.53.58,1.17,1.2,1.71,1.06-4.21,2.1-8.29,3.13-12.38,1.05.23,2.09.48,3.14.69.57.11.8.27.62.95-.97,3.72-1.73,7.5-2.85,11.17-.59,1.93-1.08,3.89-1.6,5.83-.24.91-.44,1.49-1.53.98-.46-.21-1-.26-1.5-.38-2.66-5.12-5.53-10.13-8.63-15.2-.18.61-.29,1.02-.41,1.43-.86,3.44-1.76,6.88-2.57,10.33-.16.66-.36.75-.95.57-.96-.28-1.94-.48-2.92-.71,1.56-6.33,3.12-12.67,4.68-19Z"/><path class="cls-1" d="M291.48,87.54c1.05,1.34,1.39,2.64.52,4.35-1.12,2.19-1.77,4.62-2.84,6.84-.9,1.87-1.71,3.76-2.42,5.7-.27.46-.46.96-.52,1.56,4.13-1.77,8-3.8,11.92-5.73.58.93,1.15,1.87,1.75,2.79.31.47.1.66-.32.86-5.61,2.68-11.23,5.35-16.81,8.08-.83.4-1.26.38-1.56-.53-.18-.52-.46-1.01-.69-1.51,1.53-3.19,2.69-6.52,4.03-9.78.82-1.99,1.6-3.99,2.44-6.08-.54.07-.87.19-1.13.45-1.57.75-3.14,1.5-4.72,2.25-1.86.88-3.73,1.73-5.56,2.66-.57.29-.82.21-1.07-.36-.4-.91-.88-1.78-1.32-2.67,1.6-.8,3.2-1.63,4.82-2.41,4.49-2.16,8.99-4.31,13.49-6.46Z"/><path class="cls-1" d="M53.27,83.1c2.85,2.13,5.65,4.32,8.65,6.23.71.45.95.83.25,1.54-.62.62-1.09,1.38-1.63,2.08-.53,0-.87-.36-1.25-.64-5.11-3.7-10.22-7.4-15.33-11.11,1.01-2.72,3.46-2.3,5.55-2.41,3.78-.2,7.54-.77,11.33-.74.34,0,.68-.15,1.02-.23.58-.03,1.15-.05,1.73-.08.04-.11.08-.21.12-.32-3.65-2.37-7.09-5.03-10.62-7.54,0-.04,0-.09.02-.12.71-.96,1.28-2.43,2.28-2.66.94-.21,1.85,1.16,2.8,1.79,4.08,2.72,7.98,5.7,11.93,8.6,1.8,1.32,1.82,1.3.24,2.88-.17.17-.34.33-.51.5-.28-.03-.55-.12-.83-.1-4.69.35-9.38.7-14.06,1.1-.89.08-1.82-.06-2.84.38.47.34.81.6,1.15.85Z"/><path class="cls-1" d="M241.9,39.43c2.6,1.03,4.99,2.44,6.62,4.74,2.72,3.83,2.05,8.69-1.03,11.95-5.25,5.55-11.42,4.54-16.21.66-.22-.18-.45-.33-.67-.5-.2-.38-.38-.79-.62-1.15-4.73-6.9,1.31-15.19,7.15-15.82,1.62-.17,3.18-.09,4.77.11ZM243.58,44.49c-2.29-2.51-6.81-1.98-9.08.33-3.63,3.69-2.86,9,1.61,10.77,1.25.6,2.55.87,3.93.62,2.84-.52,5.54-3.25,5.86-6.12.26-2.25-.21-4.29-2.33-5.6Z"/><path class="cls-1" d="M80.72,46.12c1.25-1.22,2.11-2.77,3.53-3.87,6.63-5.09,15.36-2,17.46,6.11,1.01,3.88-.85,6.58-3.08,9.26-.18.21-.4.39-.6.59-.23.02-.44.07-.44.37l-.04-.07s.05.07.05.07c-.5-.08-.8.32-1.17.51-6.84,3.55-13.04.46-15.87-6.14-.96-2.24-.5-4.56.16-6.82ZM96.87,53.8c.57-.34.71-.95.87-1.51,1-3.56-1.69-7.93-5.34-8.7-2.68-.57-5.47.43-6.69,2.38-.75.6-1.17,1.42-1.38,2.32-.73,3.1,1.28,6.76,4.41,8.1,2.99,1.28,6.32.22,8.13-2.58Z"/><path class="cls-1" d="M43.63,130.76c-.04.06-.08.12-.1.19-.1.06-.23.09-.3.17-3.44,4.44-10.51,4.46-15.12,1.55-3.07-1.94-4.29-4.95-4.46-8.47.23-1.43.53-2.84,1.11-4.18,1.13-2.57,3.14-4.08,5.79-4.83.46-.13.9-.17.87.54,0,.15.11.3.15.45.18.73.6,1.52.47,2.19-.14.71-1.18.62-1.78.97-3.08,1.82-3.96,6.24-1.57,8.66,1.4,1.42,3.15,2.31,5.18,2.75,2.99.65,7.66-1.35,7.87-5.77.1-2.06-.82-3.88-2.47-4.7-.58-.29-.71-.22-.87.38-.36,1.34-.8,2.66-1.21,3.99-1.04-.26-2.09-.52-3.13-.78.54-2.7,1.49-5.29,2.18-7.95.08-.31.21-.54.67-.49,3.66.42,7.48,3.71,8.21,7.25.57,2.76-.22,5.34-1.36,7.82-.15.02-.2.1-.13.24Z"/><path class="cls-1" d="M215.57,27.26c4.16,1.42,8.49,2.67,11.15,6.53,1.44,2.1,1.62,4.6.83,7.04-1.75,5.4-6.48,8.68-12.4,7.28-2.68-.63-5.16-1.84-7.61-3.08.16-.27.35-.53.48-.82,2.52-5.65,5.03-11.3,7.54-16.95ZM220.18,32.85c-.52-.3-1.04-.6-1.57-.89-.39-.21-.63-.14-.82.32-.68,1.61-1.51,3.15-2.31,4.71-.86,1.67-1.53,3.44-2.3,5.17-.71,1.59-.71,1.58.96,2.05.08.02.16.03.24.04,5.83,2.55,9.72-2.65,9.35-6.7-.21-2.25-1.33-3.92-3.54-4.71Z"/><path class="cls-1" d="M60.48,61.73c1.73-1.56,3.4-3.2,5.22-4.65,4.54-3.61,10.82-2.67,14.48,1.85,2.22,2.75,2.77,5.63,1.77,8.94-.38,1.24-1.25,2.14-2.04,3.05-1.65,1.92-3.58,3.56-5.53,5.18-1.31-1.56-2.83-2.9-4.28-4.32-3.13-3.04-6.12-6.23-9.16-9.36-.19-.2-.41-.38-.45-.68ZM77.01,68.72c.3-.08.42-.36.57-.59,1.6-2.46.96-5.57-1.61-7.85-2.48-2.19-5.91-2.31-8.33-.29-.42.3-.83.63-1.27.9-.87.53-.7.97-.04,1.61,2.44,2.36,4.84,4.77,7.24,7.18,1.56,1.57,1.71,1.56,2.96-.36.06-.1.15-.18.22-.27.18,0,.24-.09.21-.26l.06-.09Z"/><path class="cls-1" d="M109.4,44.89c.72,1.49,1.41,3,2.17,4.47.26.51.22.76-.33.98-.97.38-1.91.81-2.86,1.22-2.86-5.91-5.53-11.91-8.57-17.73,2.61-1.04,5.05-2.55,7.84-3.12,2.74-.56,5.35.73,6.56,3.08,1.29,2.51.84,4.75-1.53,7.02,2.98,1.65,5.91,3.29,8.97,4.98-1.61.72-3,1.49-4.52,1.96-2.02-1.57-4.3-2.72-6.51-3.99-.59-.34-1.26-1.25-1.79-.78-.42.37.37,1.24.58,1.91ZM108.91,39.44l-.02.02c1.12-.23,1.67-1.01,1.85-2.04.21-1.22-.29-2.25-1.3-2.88-1.03-.65-2.18-.66-3.24.08-1.39.38-1.38.37-.76,1.68.46.97.9,1.95,1.35,2.93q.58,1.26,1.79.43c.18.04.32,0,.32-.22Z"/><path class="cls-1" d="M126.29,24.19c.81-.46,1.75-.52,2.59-.85.42-.17.57.05.78.3,4.42,5.17,8.78,10.39,13.03,15.69.1.12.18.26.33.47-1.43.43-2.75.93-4.18,1.1-.37-1-1.27-1.62-1.81-2.49-.54-.86-1.18-1.12-2.05-.49-2.01.52-4.02,1.03-6.04,1.55-.43.11-.68.33-.7.83-.04.76-.28,1.52-.21,2.27.12,1.24-.51,1.69-1.57,1.91-.81.17-1.61.43-2.41.65-.05-.15-.15-.3-.14-.44.32-2.74.66-5.48.98-8.22.47-4.09,1.13-8.16,1.39-12.27ZM129.19,30.95c-.16,1.47-.3,2.93-.48,4.4-.1.83.18.95.93.67.96-.36,1.97-.59,2.95-.88.16-.02.32-.04.47-.08.34-.07.83.01.94-.38.11-.37-.28-.66-.54-.88-.86-.73-1.49-1.66-2.2-2.52-.59-.72-1.07-1.55-1.99-2.31-.04.8-.07,1.38-.1,1.97Z"/><path class="cls-1" d="M35.43,95.42c1.57-3.09,3.34-6.07,5.27-8.95.12-.18.25-.35.47-.23.82.41,1.66.81,2.44,1.28.41.25.04.56-.1.81-.87,1.54-1.72,3.08-2.62,4.6-.33.55-.35.88.31,1.18,1.05.48,2.13,1.55,3.07,1.42.89-.13,1.17-1.75,1.8-2.67.07-.1.11-.21.18-.31.5-.81.74-2.1,1.52-2.31.69-.18,1.63.67,2.47,1.04.51.22.71.46.31.96-1.11,1.4-1.91,2.99-2.84,4.51-.27.45-.35.73.22,1,1.34.64,2.66,1.31,3.97,2,.59.31.69-.16.88-.48.93-1.59,1.86-3.18,2.75-4.79.21-.38.36-.47.8-.27,2.56,1.16,2.58,1.15,1.17,3.61-1.35,2.37-2.73,4.71-4.1,7.07-1.64-1.1-3.49-1.8-5.22-2.72-4.25-2.26-8.5-4.5-12.76-6.74Z"/><path class="cls-1" d="M303.74,114.26c1.7,2.28,2.81,4.76,2.74,7.68-.02.92-.25,1.49-1.24,1.7-1.03.22-2.03.6-3.19.96,1.35-2.93,1.17-5.54-1.19-7.6-2.15-1.88-4.73-2.2-7.43-1.25-2.59.91-4.21,2.69-4.61,5.47-.36,2.51,1.02,4.81,3.78,6.26-1.4.54-2.75.96-4.13,1.3-.53.13-.73-.22-.99-.49-.96-1-1.54-2.24-2.12-3.48-1.53-4.7.43-9.6,4.57-11.73,2.8-1.44,5.66-2.09,8.83-1.41,1.7.36,3.04,1.33,4.51,2.08,0,0-.01,0-.01,0,0,.32.21.45.47.52Z"/><path class="cls-1" d="M29.66,108c.33-1.16.63-2.64,1.49-3.19.85-.54,2.08.58,3.12.99,3.92,1.54,7.82,3.12,11.71,4.72.65.27.91.15,1.16-.48.52-1.3,1.15-2.56,1.68-3.86.22-.55.41-.68,1.05-.5,2.78.77,2.84.75,1.67,3.3-1.02,2.22-2.14,4.39-3.22,6.59-3.59-1.46-7.19-2.91-10.78-4.37-2.63-1.07-5.26-2.14-7.89-3.21Z"/><path class="cls-1" d="M285.59,79.4c.06.05.14.09.18.15.63.97,1.79,1.98,1.72,2.91-.05.7-1.66,1.3-2.6,1.9-4.41,2.83-8.84,5.64-13.24,8.49-.64.41-1.05.57-1.48-.26-.44-.84-1.17-1.51-1.54-2.41,5.65-3.59,11.3-7.18,16.95-10.77Z"/><path class="cls-1" d="M180.07,19.59c.84.08,1.68.23,2.52.21,1.14-.02,1.28.57,1.16,1.5-.64,5.05-1.25,10.1-1.87,15.16-.09.72-.23,1.43-.23,2.15,0,.71-.25.88-.92.78-1.02-.16-2.04-.25-3.07-.37.09-.47.19-.94.25-1.42.72-6,1.44-12,2.15-18Z"/><path class="cls-2" d="M80.72,46.12c-.67,2.26-1.12,4.58-.16,6.82,2.84,6.6,9.03,9.7,15.87,6.14.38-.2.67-.59,1.17-.51-1.46,1.91-3.56,2.69-5.78,3.08-4.29.77-7.58-.87-10.4-4.15-2.61-3.03-3.11-7.8-1.09-10.95.1-.16.26-.29.38-.44Z"/><path class="cls-2" d="M180.07,19.59c-.72,6-1.43,12-2.15,18-.06.48-.17.94-.25,1.42-1.54-.13-1.58-.13-1.4-1.73.63-5.66,1.3-11.31,1.95-16.96.16-1.42,1.08-.9,1.86-.73Z"/><path class="cls-2" d="M215.57,27.26c-2.51,5.65-5.02,11.3-7.54,16.95-.13.29-.32.55-.48.82-1.46-.32-1.47-.33-.89-1.64,2.31-5.2,4.63-10.4,6.95-15.6.61-1.36.62-1.35,1.96-.53Z"/><path class="cls-2" d="M99.81,33.82c3.03,5.82,5.7,11.83,8.57,17.73-.87.75-1.41.68-1.92-.48-1.27-2.9-2.54-5.81-4.06-8.58-1.23-2.24-2.28-4.57-3.4-6.85-.64-1.31-.63-1.32.81-1.82Z"/><path class="cls-2" d="M303.28,113.75c-1.48-.75-2.81-1.72-4.51-2.08-3.17-.67-6.03-.03-8.83,1.41-4.14,2.14-6.1,7.04-4.57,11.73-2.57-4.24-.74-10.49,3.59-12.79,3.28-1.74,6.61-2.4,10.18-1.27,1.69.54,3.24,1.34,4.14,3Z"/><path class="cls-2" d="M146.23,19.44c.48,2,1.37,3.84,2.1,5.75,1.6,4.2,3.24,8.39,4.87,12.58.15.39.18.89.73,1.01-1.25.37-1.89-.04-2.37-1.33-2.07-5.56-4.26-11.07-6.41-16.6q-.58-1.49,1.08-1.41Z"/><path class="cls-2" d="M126.29,24.19c-.26,4.11-.92,8.18-1.39,12.27-.31,2.74-.66,5.48-.98,8.22-.02.14.09.29.14.44-.52.13-1.14.62-1.55.22-.38-.37-.2-1.13,0-1.61.67-1.63.6-3.37.83-5.06.58-4.29,1.03-8.61,1.53-12.91.1-.86.19-1.74,1.42-1.57Z"/><path class="cls-2" d="M23.65,124.21c.16,3.52,1.39,6.53,4.46,8.47,4.6,2.92,11.68,2.89,15.12-1.55.07-.08.2-.12.3-.17-.49,1.76-1.8,2.86-3.29,3.65-4.84,2.56-11.15,1.2-14.25-2.2-2.12-2.32-3.06-5.03-2.33-8.19Z"/><path class="cls-2" d="M60.48,61.73c.04.3.25.49.45.68,3.05,3.13,6.04,6.31,9.16,9.36,1.46,1.42,2.98,2.76,4.28,4.32-.46.87-.88.73-1.53.1-3.88-3.73-7.59-7.63-11.37-11.46-.39-.4-.78-.78-1.26-1.11-1.17-.79-1.09-1.22.26-1.9Z"/><path class="cls-2" d="M190.47,20.66c-1.56,6.33-3.12,12.67-4.68,19-1.68-.22-1.79-.26-1.03-2.27,1.18-3.11,1.72-6.38,2.59-9.56.59-2.16,1.15-4.33,1.63-6.51.23-1.03.67-1.15,1.49-.66Z"/><path class="cls-2" d="M35.43,95.42c4.25,2.25,8.51,4.49,12.76,6.74,1.73.92,3.58,1.62,5.22,2.72-.16.95-.59,1.03-1.42.59-3.49-1.89-7.02-3.73-10.53-5.57-1.92-1.01-3.84-2-5.78-2.96-.85-.42-.97-.88-.25-1.51Z"/><path class="cls-2" d="M241.9,39.43c-1.59-.21-3.15-.29-4.77-.11-5.84.62-11.88,8.91-7.15,15.82.24.36.42.76.62,1.15-3.31-2.68-4.24-7.21-2.34-11.36,2.24-4.92,7.38-7.36,12.57-5.97.38.1.8.14,1.07.48Z"/><path class="cls-2" d="M258.07,49.75c-1.58,1.81-2.32,4.08-3.42,6.16-2.14,4.07-4.19,8.19-6.28,12.29-.87-.4-.82-.93-.42-1.72,2.82-5.48,5.59-10.98,8.39-16.47.61-1.2.62-1.2,1.73-.26Z"/><path class="cls-2" d="M29.66,108c2.63,1.07,5.26,2.14,7.89,3.21,3.59,1.46,7.19,2.91,10.78,4.37-.08.87-.45,1.05-1.28.71-5.73-2.37-11.47-4.71-17.22-7.02-.98-.4-.98-.73-.17-1.27Z"/><path class="cls-2" d="M43.96,81.19c5.11,3.7,10.22,7.4,15.33,11.11.38.28.72.65,1.25.64-.82,1.13-1.55.61-2.41-.03-4.65-3.43-9.33-6.81-14.01-10.19-.68-.49-1.02-.92-.16-1.53Z"/><path class="cls-2" d="M285.59,79.4c-5.65,3.59-11.3,7.18-16.95,10.77-.27-.23-.53-.47-.88-.78,3.75-2.22,7.22-4.81,10.97-6.95,1.85-1.05,3.61-2.27,5.36-3.48.78-.54,1.21-.43,1.5.43Z"/><path class="cls-2" d="M291.48,87.54c-4.5,2.15-9,4.3-13.49,6.46-1.62.78-3.21,1.6-4.82,2.41-.65-.63-.5-1.02.3-1.4,5.63-2.68,11.26-5.37,16.87-8.09.76-.37,1.01-.07,1.14.61Z"/><path class="cls-1" d="M290.34,135.29c-1.57,0-2.65-1.08-2.62-2.59.03-1.47,1.04-2.36,2.61-2.32,1.31.04,2.4,1.23,2.42,2.65.02,1.26-1.04,2.26-2.4,2.25Z"/><path class="cls-2" d="M159.55,18.85c-1.39,4.39-2.77,8.78-4.22,13.35-.57-.75-.7-1.49-.97-2.16.52-.26.45-.82.59-1.25.98-2.98,1.95-5.95,2.84-8.95.3-1,.82-1.29,1.76-.99Z"/><path class="cls-2" d="M171.16,18.67c-1.36,4.36-2.72,8.71-4.18,13.41-.38-1.05-.63-1.76-.89-2.47.42-.27.44-.74.57-1.15.92-2.87,1.88-5.72,2.71-8.62.3-1.04.78-1.41,1.78-1.17Z"/><path class="cls-2" d="M160.22,28.31c.07-.64.25-1.24.66-1.91.54,1.36,1.09,2.56,1.49,3.81.9,2.82,2.57,5.32,3.35,8.19-1.12.28-1.74-.11-2.14-1.25-1.05-2.97-2.23-5.89-3.35-8.84Z"/><path class="cls-2" d="M192.22,29.46c.12-.41.24-.82.41-1.43,3.1,5.07,5.96,10.08,8.63,15.2-.79.08-1.24-.32-1.6-.99-1.03-1.94-2.07-3.88-3.17-5.79-1.29-2.24-2.77-4.38-3.9-6.72-.06-.12-.24-.18-.37-.27Z"/><path class="cls-2" d="M204.98,23.97c-1.03,4.09-2.07,8.17-3.13,12.38-.62-.54-.83-1.18-1.2-1.71.57-.08.45-.58.54-.94.74-2.95,1.52-5.88,2.18-8.85.23-1.05.65-1.34,1.6-.89Z"/><path class="cls-2" d="M267.32,58.65c-.93.78-2.09,1.14-3.16,1.65-3.2,1.52-6.44,2.96-9.99,4.59.44-.87.71-1.42.99-1.97,1.24.02,2.21-.75,3.28-1.2,2.53-1.07,5-2.3,7.49-3.48.61-.29,1.14-.45,1.4.41Z"/><path class="cls-2" d="M53.27,83.1c-.34-.25-.68-.51-1.15-.85,1.02-.44,1.95-.3,2.84-.38,4.68-.4,9.37-.75,14.06-1.1.27-.02.55.06.83.1-.16.77-.74.81-1.38.85-4.77.35-9.54.73-14.31,1.1-.31.02-.66-.03-.88.28Z"/><path class="cls-2" d="M275.49,66.62c-2.36,1.43-4.91,2.46-7.4,3.63-1.73.81-3.48,1.55-5.36,2.39.11-.71.44-1.14.72-1.6,3.53-1.53,7.06-3.08,10.51-4.78.6-.29,1.22-.61,1.52.36Z"/><path class="cls-2" d="M285.84,94.53c.26-.27.58-.38,1.13-.45-.84,2.09-1.62,4.09-2.44,6.08-1.34,3.26-2.51,6.6-4.03,9.78-.74-.58-.31-1.22-.07-1.83,1.73-4.3,3.46-8.6,5.19-12.9.09-.22.14-.45.22-.68Z"/><path class="cls-2" d="M53.08,69.87c3.54,2.52,6.97,5.18,10.62,7.54-.04.11-.08.21-.12.32-.58.03-1.15.05-1.73.08-.45-.89-1.42-1.1-2.15-1.64-2.21-1.64-4.41-3.3-6.66-4.9-.77-.55-.69-.94.02-1.4Z"/><path class="cls-2" d="M260.99,65.52c.49-.24.99-.47,1.48-.71-1.82,3.9-3.43,7.85-5.86,11.37-.82-.34-.77-.87-.4-1.54,1.43-2.68,3.11-5.23,4.35-8.01.16-.36.44-.68.43-1.11Z"/><path class="cls-2" d="M298.14,100.25c-3.92,1.93-7.8,3.96-11.92,5.73.06-.61.25-1.1.52-1.56,2.68-.85,5.08-2.3,7.61-3.48.83-.39,1.67-.78,2.47-1.24.73-.42,1.19-.38,1.33.54Z"/><path class="cls-2" d="M109.4,44.89c-.21-.66-1-1.54-.58-1.91.53-.47,1.21.44,1.79.78,2.21,1.27,4.49,2.42,6.51,3.99-.64.61-1.24.61-2.02.11-1.58-1.02-3.23-1.93-4.85-2.88-.28-.16-.54-.38-.86-.08Z"/><path class="cls-2" d="M134.98,37.93c.87-.62,1.51-.37,2.05.49.55.87,1.44,1.49,1.81,2.49-.63.57-1.14.5-1.65-.21-.7-.95-1.47-1.85-2.21-2.77Z"/><path class="cls-2" d="M34.06,123.89c1.04.26,2.09.52,3.13.78.07,1-.28,1.42-1.31.98-.4-.17-.83-.27-1.26-.35-.95-.18-1.09-.66-.56-1.41Z"/><path class="cls-2" d="M303.74,114.26c-.27-.07-.47-.2-.47-.52.33.01.44.23.47.52Z"/><path class="cls-2" d="M97.6,58.57c0-.29.21-.34.44-.37-.04.25-.16.39-.44.37Z"/><path class="cls-2" d="M43.63,130.76c-.06-.14-.02-.22.13-.24.05.13,0,.21-.13.24Z"/><path class="cls-2" d="M236.12,55.58c2.64.33,5.02-.12,6.87-2.22,2.4-2.72,2.56-5.19.59-8.88,2.12,1.31,2.58,3.35,2.33,5.6-.33,2.86-3.02,5.59-5.86,6.12-1.38.26-2.68-.02-3.93-.62Z"/><path class="cls-2" d="M96.87,53.8c-.15-.87.24-1.71.1-2.61-.86-5.27-6.41-8.3-10.92-5.31-.09.06-.23.06-.34.09,1.22-1.96,4.01-2.95,6.69-2.38,3.65.77,6.34,5.14,5.34,8.7-.16.57-.3,1.17-.87,1.51Z"/><path class="cls-2" d="M214.38,44.26c2.6.24,4.87-.32,6.49-2.56,2.11-2.9,1.91-5.53-.69-8.84,2.21.79,3.33,2.46,3.54,4.71.37,4.04-3.52,9.24-9.35,6.7Z"/><path class="cls-2" d="M77.01,68.72c.24-1.24.72-2.44.41-3.77-.98-4.14-5.17-6.48-9.2-5.1-.19.06-.38.1-.57.14,2.41-2.02,5.85-1.9,8.33.29,2.57,2.27,3.21,5.39,1.61,7.85-.15.23-.26.5-.57.59Z"/><path class="cls-2" d="M76.74,69.06c.07-.08.14-.17.21-.25.02.16-.04.26-.21.25Z"/><path class="cls-2" d="M108.9,39.46c.3-.84.78-1.61.46-2.61-.51-1.56-1.6-2.19-3.15-2.24,1.06-.74,2.21-.73,3.24-.08,1.01.63,1.51,1.67,1.3,2.88-.18,1.03-.73,1.82-1.85,2.04Z"/><path class="cls-2" d="M108.59,39.66c.05-.15.14-.25.32-.22,0,.23-.14.26-.32.22Z"/><path class="cls-2" d="M132.59,35.14c-1.08-1.44-2.06-2.96-3.41-4.19.03-.58.06-1.17.1-1.97.92.75,1.4,1.58,1.99,2.31.71.86,1.34,1.78,2.2,2.52.26.22.65.51.54.88-.12.39-.6.31-.94.38-.16.03-.32.05-.47.08Z"/><path class="cls-1" d="M260.21,231.54c.7-1.14,1.82-1.88,2.75-3.03,1.46,2.93,2.74,5.79,4.27,8.5,1.64,2.92,3,5.97,4.58,8.91.57,1.05.64,1.8-.37,2.53-.35.25-.65.59-.98.88-3.86-1.88-7.73-3.75-11.92-5.79.44.83.71,1.34.99,1.85,1.43,2.91,2.8,5.85,4.32,8.71.5.95.5,1.55-.34,2.19-.38.29-.69.66-1.04,1-3.21-1.53-6.46-2.99-9.63-4.61-3.13-1.6-6.44-2.81-9.47-4.61.44-.46.89-.92,1.33-1.38q1.4-1.43,3.23-.49c2.92,1.49,5.84,2.97,8.76,4.46.61.35,1.27.57,2.02.76-.27-1.33-1.18-2.16-1.72-3.19-1.59-3.04-3.01-6.16-4.75-9.11.17-.47.63-.71.92-1.09.36-.48.73-.43,1.24-.18,3.4,1.69,6.82,3.34,10.23,5.01.58.25,1.08.72,1.89.73-.79-1.55-1.48-3-2.25-4.41-1.37-2.53-2.48-5.21-4.06-7.63Z"/><path class="cls-1" d="M162.52,285.85c-.79,3.06-2.11,5.94-3.12,8.93-.14.42-.41.42-.73.41-.76-.03-1.52-.06-2.27-.09-.93-2.99-1.78-6-2.87-8.95-1.32-3.55-2.27-7.24-3.38-10.87.08-.02.16-.05.23-.05,1.24.04,2.7-.3,3.65.24.97.55.87,2.18,1.22,3.34.71,2.31,1.33,4.64,1.98,6.96.27.85.55,1.7.82,2.56.09,0,.18.01.26.02,1.55-4.32,3.1-8.64,4.65-12.96,2.32-.04,2.31-.04,2.97,2.2.84,2.81,1.7,5.61,2.55,8.41.25.9.51,1.8.76,2.69.08,0,.16,0,.23,0,1.53-4.3,3.06-8.59,4.59-12.89,1.2.01,2.4.03,3.6.04.58,0,.53.27.37.69-1.08,2.78-1.98,5.64-3.24,8.33-1.41,3.02-2.46,6.17-3.64,9.27-.38,1.01-.78,1.57-1.93,1.3-.46-.11-.95-.07-1.43-.09-.22-.77-.42-1.55-.65-2.32-.91-2.99-1.82-5.98-2.73-8.97-.09-.32-.15-.66-.53-.7-.48-.06-.4.42-.52.67-.3.6-.41,1.29-.85,1.83Z"/><path class="cls-1" d="M59.2,230.85c-2.76,2.18-5.53,4.35-8.29,6.54-.53.42-.97.45-1.4-.16-.57-.81-1.32-1.5-1.77-2.41.99-.67,2.02-1.28,2.97-2.01,4.36-3.32,8.7-6.68,13.05-10.02,1.19,1.04,1.66,2.19,1.27,3.89-.94,4.09-1.63,8.24-2.43,12.36-.05.26-.15.52-.23.78.12.54-.3,1.07.04,1.76,1.19-.93,2.34-1.83,3.49-2.73,2.19-1.71,4.38-3.42,6.58-5.13.91.69,1.44,1.71,2.16,2.56.52.62-.2.73-.47.94-3.51,2.72-7.04,5.43-10.57,8.13-1.39,1.06-2.84,2.07-4.22,3.14-.38.3-.58.31-.85-.08-.41-.59-.85-1.17-1.28-1.75,1.02-3.88,1.63-7.84,2.36-11.78.3-1.64,1-3.18,1.19-4.84-.78-.08-1.06.59-1.6.81Z"/><path class="cls-1" d="M201.76,270.21c.99-.29,1.96-.66,2.97-.86,1.01-.2,1.04.8,1.19,1.34.81,2.86,1.51,5.74,2.25,8.62.66,2.59,1.24,5.21,2.02,7.76.35,1.13.04,1.47-.98,1.62-.51.07-1,.3-1.54.24-.26-.55-.8-.78-1.27-1.06-3.56-2.1-6.8-4.67-10.25-6.93-.85-.56-1.75-1.03-2.89-1.71.25.88.41,1.48.58,2.07.55,3.22,1.88,6.21,2.66,9.36.24.96.07,1.36-.91,1.49-.9.12-1.79.36-2.69.55-1.62-6.35-3.25-12.7-4.87-19.05,1.58-.7,2.9-.48,4.39.59,3.34,2.4,6.87,4.54,10.2,6.96.73.48,1.46.96,2.43,1.6-1.15-4.4-2.22-8.5-3.29-12.6Z"/><path class="cls-1" d="M281.41,215.16c3.17,1.59,6.32,3.19,9.51,4.75.65.32.77.56.36,1.19-.5.77-.87,1.61-1.29,2.43-.73-.32-1.49-.6-2.2-.95-5.03-2.52-10.05-5.06-15.07-7.58-.25-.12-.52-.2-.78-.29.47-1.65,1.41-2.58,3.23-2.96,4.31-.9,8.58-2.05,12.86-3.09.7-.13,1.42-.18,2.25-.63-4.08-1.81-7.84-3.93-11.7-5.84,0-.04,0-.08.02-.12q1.37-3.3,4.52-1.7c4.61,2.32,9.22,4.65,13.86,6.92.85.42,1.19.78.55,1.63-.31.41-.52.9-.78,1.35-.24.03-.48.03-.71.09-4.58,1.1-9.16,2.2-13.73,3.32-.75.18-1.55.24-2.3.72.52.29.97.53,1.42.78Z"/><path class="cls-1" d="M232.06,255.27c2.35-1.92,4.93-3.22,8.08-3.15,2.09.05,3.89.79,5.55,2,3.24,2.36,5.04,5.49,4.77,9.53-.31,4.58-3.14,7.03-7.54,8.85-.98.2-1.96.48-2.97.44-4.35-.19-7.45-2.35-9.34-6.19-1.84-3.75-1.6-7.39,1.01-10.76.17-.22.29-.47.44-.7ZM243.57,268.04c1.25-.31,1.84-1.32,2.34-2.33,1.46-2.95.02-6.99-3.13-8.97-2.03-1.27-4.6-1.26-6.45.03-1.58.64-2.45,1.9-2.92,3.46-1.11,3.74,1.83,8.81,6.89,9.04,1.22.06,2.38-.28,3.27-1.22Z"/><path class="cls-1" d="M98.73,255.59c1.8,1.25,3.73,2.31,4.96,4.25,2.58,4.08,1.16,9.8-2.06,12.62-2.17,1.9-4.43,3.22-7.4,3.14-3.48-.08-6.16-1.73-8.46-4.17-1.3-2.32-2.12-4.72-1.6-7.47.74-3.96,4.11-8.14,8.3-8.9,2.19-.4,4.21,0,6.27.52ZM90.5,270.73c1.19,1.01,2.61,1.35,4.11,1.22,3.57-.3,6.85-4.28,6.44-7.85-.16-1.43-.58-2.81-1.92-3.67-.03-.04-.07-.08-.11-.11.01-.22-.15-.28-.31-.35-.66-.68-1.48-1.08-2.39-1.29-4.04-.95-8.28,2.41-8.52,6.81-.12,2.24.62,4.09,2.69,5.24Z"/><path class="cls-1" d="M45.17,183.59c1.84,3.53,2.25,7.03-.18,10.5-.55.78-.99,1.11-1.66.19-.05-.06-.11-.11-.17-.17-.5-.46-1.22-.84-1.45-1.41-.26-.65.61-1.08.9-1.67,1.58-3.23-.62-7.32-4.34-8.1-3.27-.69-7.64,1.1-8.86,4.54-1.11,3.11,1.52,7.39,4.89,7.43.74,0,.77-.21.59-.84-.38-1.3-.97-2.54-1.11-3.9,1.03-.28,2.07-.57,3.1-.85.79,2.51,1.57,5.01,2.36,7.52.11.35.32.66-.24.83-4.09,1.28-8.69.78-11.47-2.58-1.25-1.51-1.75-3.39-2.2-5.25-.36-5.54,2.78-8.61,7.66-10.25,4.83-1.62,9.29-.08,12.19,4.02Z"/><path class="cls-1" d="M209.7,267.34c2.3-1.03,4.56-2.19,7.01-2.85,3.17-.86,5.97-.25,8.58,1.78,4.2,3.27,5.19,9.79,2.16,13.71-.46.59-1.02,1-1.59,1.42-2.45,1.83-5.25,2.98-8.11,3.98-.4-1.64-1.32-3.03-2.08-4.51-1.23-2.39-2.28-4.87-3.33-7.34-.88-2.06-2-4.02-2.63-6.18ZM221.14,280.14h-.02c.35.11.61-.1.89-.26,2.35-1.32,3.49-3.52,3.19-6.12-.31-2.71-2.43-5.32-4.84-5.92-1.27-.32-2.53-.33-3.69.4-.43.1-.85.2-1.28.29-.95.18-1.05.6-.63,1.47.59,1.25,1.29,2.44,1.89,3.68,1.03,2.11,1.97,4.26,2.89,6.42.29.69.61.73,1.13.31.22.02.4-.04.47-.28Z"/><path class="cls-1" d="M77.8,239.45c2.13,1.99,4.59,3.61,6.32,6.03,3.33,4.66.64,10.92-3.24,13.34-3.36,2.09-6.65,2.3-10.15.65-.36-.17-.74-.33-1.04-.57-1.96-1.54-3.76-3.24-5.48-5.03,1.48-1.3,2.68-2.87,4.05-4.27,3.24-3.33,6.54-6.6,9.55-10.14ZM80.43,246.94c-.35-.69-.9-1.22-1.38-1.81-.55-.68-.86-.56-1.46.05-2.52,2.57-4.74,5.43-7.46,7.83-1.14,1-1.08,1.14.2,1.99.19.13.43.19.65.28,2.02,2,4.83,2.24,7.26.69,1.37-.87,2.26-2.15,3.1-3.44,1.16-1.78.66-4.38-.92-5.59Z"/><path class="cls-1" d="M109.18,277.61c-.44,1.72-1.39,3.24-2.03,4.88-.16.41-.4.41-.76.23-.93-.46-1.87-.89-2.8-1.33,1.05-2.34,2.12-4.68,3.16-7.03,1.6-3.63,3.36-7.2,4.81-10.9,2.46.73,4.79,1.78,6.98,3.1,2.25,1.36,3.08,3.91,2.29,6.37-.92,2.86-2.87,4.38-5.64,4.26-.8-.04-.72.2-.6.79.59,2.94,1.13,5.89,1.73,9.03-1.56-.65-2.97-1.23-4.39-1.82-.08-.56-.16-1.11-.24-1.67-.33-2.35-.65-4.69-.98-7.04-.03-.23-.05-.52-.33-.57-.3-.05-.36.25-.48.45-.24.42-.48.83-.72,1.24ZM115.11,268.44c-.79-.66-1.31-.62-1.65.48-.36,1.16-1.1,2.16-1.66,3.23-.68,1.28-.54,1.43.97,1.45,1.7.97,3.33.54,4.16-1.1.87-1.73.19-3.25-1.81-4.06Z"/><path class="cls-1" d="M132.06,287.38c-1.69-.75-3.53-1-5.26-1.6-.42-.14-.57.13-.77.39-.39.51-.79,1.01-1.18,1.52q-1.17,1.54-3.08,1.03c-.69-.19-1.38-.39-2.07-.59,1.11-1.77,2.58-3.23,3.88-4.84,2.7-3.34,5.28-6.77,7.94-10.14.51-.65.88-1.45,1.67-1.85,2.84.7,2.79.7,3.07,3.55.49,4.9,1.06,9.79,1.59,14.68.13,1.19.21,2.38.32,3.68-1.32-.37-2.53-.71-3.74-1.04-.12-.98-.37-1.97-.33-2.94.06-1.53-.75-1.89-2.03-1.84ZM131.16,279.13c-.8,1.09-1.59,2.18-2.39,3.26-.21.28-.43.56.11.67.99.2,1.87.84,2.93.75.42.13.83.27,1.25.39.43.12.69.02.64-.51-.18-1.95-.34-3.9-.5-5.85-.02-.27-.15-.46-.41-.52-.24-.06-.35.15-.47.3-.39.5-.77,1.01-1.15,1.52Z"/><path class="cls-1" d="M56.31,210.78c1.05,1.74,2.12,3.47,3.15,5.23.63,1.09,1.54,1.99,2.1,3.14.24.49.28.77-.26,1.02-.71.34-1.41.72-2.1,1.1-.5.27-.6-.12-.78-.42-.89-1.52-1.81-3.03-2.67-4.57-.28-.51-.51-.57-.99-.26-.84.54-1.72,1.05-2.61,1.5-.51.26-.47.51-.23.92.86,1.45,1.67,2.93,2.54,4.37.29.48.26.72-.23,1.04-2.2,1.46-2.19,1.48-3.51-.8-.61-1.06-1.52-1.94-2.03-3.07-.18-.41-.43-.36-.76-.15-1.16.71-2.33,1.42-3.52,2.07-.56.3-.49.57-.22,1.03.9,1.52,1.72,3.09,2.67,4.57.51.79-.08.98-.52,1.05-.82.14-1.47,1.85-2.36.58-1.39-2-2.54-4.18-3.72-6.32-.4-.73-1.15-1.21-1.4-2.03,1.6-.9,3.24-1.75,4.81-2.71,4.13-2.56,8.54-4.62,12.62-7.27Z"/><path class="cls-1" d="M301.91,197.07s-.04.03-.04.03c-.18.08-.38.12-.53.23-5,3.63-9.62,2.59-13.48.25-2.99-1.81-5.34-5.16-3.94-11.03.59-1.27,1.17-2.55,2.14-3.6.4-.44.75-.67,1.43-.4,1.13.45,2.32.74,3.58,1.12-.68.51-1.25,1.02-1.89,1.4-2.78,1.68-2.44,6.71-.1,8.45,1.92,1.43,3.8,2.55,6.23,2.31,3.87-.38,7.48-4.11,5.15-9,1.26.41,2.42.81,3.59,1.15.55.16.58.54.62,1.01.24,2.87-.81,5.33-2.41,7.62-.21.08-.37.2-.35.45Z"/><path class="cls-1" d="M50.98,199.9c.68.91.97,2,1.46,3,.33.68-.34.6-.6.72-3.35,1.52-6.7,3.02-10.07,4.52-1.24.55-2.49,1.1-3.77,1.58-.67.26-.84.54-.49,1.22.75,1.46,1.41,2.97,2.11,4.46-.35.16-.82.38-1.29.6q-1.81.82-2.6-.93c-1.03-2.3-2.05-4.59-3.08-6.89,2.35-1.1,4.71-2.17,7.09-3.2,3.77-1.63,7.49-3.38,11.23-5.07Z"/><path class="cls-1" d="M181.1,275.14c.99-.13,1.98-.26,2.97-.4.71-.1,1.02.29,1.1.92.75,5.95,1.48,11.9,2.24,17.85.07.57-.05.82-.63.86-1.04.08-2.07.19-3.1.3-.09-.47-.19-.94-.26-1.42-.78-6.04-1.54-12.07-2.32-18.11Z"/><path class="cls-1" d="M267.31,221.25c.69-.95,1.37-1.91,2.06-2.86.38-.52.64,0,.87.15,1.45.93,2.87,1.91,4.31,2.86,3.57,2.35,7.23,4.56,10.77,6.97.87.59.89.98.3,1.7-.52.65-.97,1.36-1.45,2.04-3.24-2.38-6.73-4.35-10.07-6.56-2.23-1.48-4.34-3.17-6.8-4.3Z"/><path class="cls-2" d="M209.7,267.34c.63,2.16,1.75,4.12,2.63,6.18,1.05,2.47,2.11,4.95,3.33,7.34.76,1.48,1.68,2.87,2.08,4.51-.03.03-.05.07-.08.09q-1.76,1.01-2.56-.79c-2.22-4.94-4.45-9.87-6.66-14.81-.84-1.88-.82-1.88,1.25-2.52Z"/><path class="cls-2" d="M232.06,255.27c-.15.23-.27.48-.44.7-2.61,3.38-2.85,7.01-1.01,10.76,1.89,3.84,4.99,6.01,9.34,6.19,1.01.04,1.99-.23,2.97-.44-.79,1.02-2.01,1.05-3.11,1.24-3.9.68-7.92-1.31-10.17-5.03-2.24-3.72-2.51-7.49,0-11.21.62-.91,1.3-1.84,2.42-2.23Z"/><path class="cls-2" d="M56.31,210.78c-4.08,2.65-8.49,4.71-12.62,7.27-1.56.97-3.2,1.81-4.81,2.71-.1-.12-.2-.25-.3-.37-.72-.87-.61-1.43.49-1.95,3.16-1.48,6.07-3.44,9.11-5.15,2.2-1.24,4.39-2.49,6.62-3.68,1.29-.69,1.12.63,1.51,1.17Z"/><path class="cls-2" d="M150.15,275.29c1.11,3.63,2.06,7.32,3.38,10.87,1.09,2.95,1.94,5.96,2.87,8.95-1.42.36-1.8-.41-2.27-1.64-2.12-5.49-3.51-11.21-5.35-16.78-.54-1.64-.42-1.74,1.37-1.39Z"/><path class="cls-2" d="M133.18,271.29c-.79.4-1.16,1.2-1.67,1.85-2.66,3.37-5.24,6.8-7.94,10.14-1.3,1.61-2.78,3.08-3.88,4.84-.08,0-.16.01-.24,0q-1.66-.35-.63-1.65c3.91-4.98,8.05-9.77,11.79-14.88.84-1.15,1.7-.36,2.57-.29Z"/><path class="cls-2" d="M188.03,273.66c1.62,6.35,3.25,12.7,4.87,19.05q-1.56.61-1.96-.95c-1.39-5.41-2.79-10.82-4.19-16.22q-.41-1.6,1.28-1.88Z"/><path class="cls-2" d="M45.17,183.59c-2.9-4.09-7.36-5.64-12.19-4.02-4.88,1.64-8.02,4.71-7.66,10.25-1.37-4.13.41-8.31,4.21-10.42,3.22-1.8,6.5-2.45,10.06-1.35,2.66.83,4.44,2.63,5.63,5.09.06.12-.03.3-.04.45Z"/><path class="cls-2" d="M181.1,275.14c.77,6.04,1.54,12.07,2.32,18.11.06.48.17.94.26,1.42-1.68.42-1.67.41-1.87-1.2-.71-5.58-1.42-11.16-2.14-16.73-.2-1.58-.19-1.6,1.44-1.59Z"/><path class="cls-2" d="M283.92,186.55c-1.41,5.87.95,9.22,3.94,11.03,3.86,2.34,8.48,3.38,13.48-.25.15-.11.35-.15.53-.23-.77,1.61-2.31,2.2-3.78,2.93-4.79,2.39-12.71-.33-14.67-5.72-.97-2.67-.8-5.24.5-7.75Z"/><path class="cls-2" d="M98.73,255.59c-2.06-.51-4.08-.92-6.27-.52-4.19.76-7.56,4.95-8.3,8.9-.51,2.75.31,5.14,1.6,7.47-2.49-2.15-3.16-4.94-2.74-8.05.9-6.79,7.64-11.07,13.84-8.83.67.24,1.37.46,1.87,1.03Z"/><path class="cls-2" d="M267.31,221.25c2.46,1.13,4.57,2.82,6.8,4.3,3.34,2.22,6.84,4.19,10.07,6.56-.34,1.11-.87,1.15-1.82.51-4.52-3.02-9.09-5.98-13.65-8.95-.33-.22-.71-.36-1.06-.55-1.26-.66-1.28-.77-.34-1.88Z"/><path class="cls-2" d="M111.56,263.46c-1.45,3.7-3.21,7.26-4.81,10.9-1.04,2.35-2.1,4.69-3.16,7.03-1.05-.12-1.34-.53-.86-1.58,2.43-5.31,4.83-10.63,7.19-15.97.45-1.02.91-1.05,1.64-.37Z"/><path class="cls-2" d="M271.93,214.69c.26.1.54.17.78.29,5.02,2.53,10.04,5.06,15.07,7.58.71.36,1.46.64,2.2.95-.24,1.14-.84,1.26-1.83.76-5.29-2.7-10.6-5.38-15.92-8.03-.89-.44-1.05-.87-.31-1.56Z"/><path class="cls-2" d="M77.8,239.45c-3.01,3.54-6.31,6.81-9.55,10.14-1.37,1.4-2.57,2.97-4.05,4.27-1.03-.48-.79-.99-.13-1.68,4.07-4.27,8.13-8.57,12.15-12.88.69-.74,1.14-.75,1.59.15Z"/><path class="cls-2" d="M63.76,222.79c-4.35,3.34-8.69,6.69-13.05,10.02-.95.72-1.98,1.34-2.97,2.01-.73-.42-.89-.86-.1-1.41,4.54-3.16,8.68-6.85,13.23-10,.43-.3.87-.6,1.22-.97.78-.82,1.27-.53,1.66.36Z"/><path class="cls-2" d="M50.98,199.9c-3.74,1.7-7.46,3.44-11.23,5.07-2.38,1.03-4.74,2.11-7.09,3.2-.76-.88-.38-1.29.56-1.7,5.38-2.37,10.73-4.81,16.09-7.21.75-.34,1.56-.76,1.66.64Z"/><path class="cls-2" d="M243.37,248.08c3.03,1.8,6.34,3.01,9.47,4.61,3.17,1.62,6.42,3.08,9.63,4.61-.35.7-.75.98-1.6.57-5.72-2.77-11.46-5.52-17.22-8.21-1.03-.48-1.22-.87-.28-1.58Z"/><path class="cls-2" d="M193.84,281.31c-.17-.59-.33-1.19-.58-2.07,1.15.67,2.05,1.15,2.89,1.71,3.45,2.26,6.69,4.83,10.25,6.93.47.28,1.01.51,1.27,1.06-.57.56-1.18.52-1.84.15-2.39-1.34-4.51-3.08-6.8-4.57-1.7-1.11-3.26-2.48-5.2-3.2Z"/><path class="cls-2" d="M162.52,285.85c.44-.54.55-1.23.85-1.83.12-.25.04-.72.52-.67.39.05.44.39.53.7.9,2.99,1.82,5.98,2.73,8.97.23.77.44,1.54.65,2.32-1.32.34-1.95-.2-2.22-1.52-.51-2.5-1.72-4.79-2.41-7.24-.1-.36-.19-.7-.66-.73Z"/><path class="cls-2" d="M162.97,275.4c-1.55,4.32-3.1,8.64-4.65,12.96-.09,0-.18-.01-.26-.02-.27-.85-.55-1.71-.82-2.56.39-.23.44-.65.58-1.02.98-2.68,2.02-5.33,2.89-8.04.41-1.26,1.03-1.69,2.26-1.31Z"/><path class="cls-2" d="M174.08,275.82c-1.53,4.3-3.06,8.59-4.59,12.89-.08,0-.16,0-.23,0-.25-.9-.51-1.8-.76-2.69,1.21-2.4,1.88-5,2.86-7.49.18-.45.38-.9.47-1.36.25-1.33,1.05-1.66,2.26-1.34Z"/><path class="cls-2" d="M201.76,270.21c1.07,4.1,2.14,8.19,3.29,12.6-.97-.64-1.7-1.12-2.43-1.6.34-.49-.01-.94-.12-1.37-.64-2.61-1.33-5.22-2-7.82-.41-1.61-.41-1.61,1.26-1.8Z"/><path class="cls-1" d="M301.87,183.14c.07-1.58.95-2.52,2.31-2.47,1.35.05,2.35,1.12,2.28,2.42-.08,1.6-1.1,2.64-2.51,2.59-1.29-.05-2.14-1.08-2.08-2.54Z"/><path class="cls-2" d="M59.2,230.85c.53-.22.82-.89,1.6-.81-.19,1.67-.88,3.21-1.19,4.84-.73,3.94-1.34,7.9-2.36,11.78-.73-.4-.74-1-.6-1.74.88-4.42,1.73-8.86,2.59-13.28.05-.27.2-.54-.04-.79Z"/><path class="cls-2" d="M281.41,215.16c-.45-.25-.9-.49-1.42-.78.75-.49,1.55-.54,2.3-.72,4.57-1.12,9.15-2.22,13.73-3.32.23-.06.47-.06.71-.09-.07.81-.58,1.12-1.32,1.3-4.32,1.02-8.64,2.08-12.96,3.12-.38.09-.82.07-1.04.49Z"/><path class="cls-2" d="M278.57,202.16c3.86,1.92,7.63,4.04,11.7,5.84-.83.46-1.55.5-2.25.63-3.02-1.87-6.3-3.27-9.42-4.96-.29-.16-.82-.09-.75-.58.06-.38.09-.92.71-.93Z"/><path class="cls-2" d="M252.25,239.12c1.74,2.95,3.17,6.08,4.75,9.11.54,1.03,1.45,1.87,1.72,3.19-.76-.19-1.41-.4-2.02-.76.04-.51-.24-.92-.46-1.34-1.44-2.85-2.87-5.72-4.35-8.55-.38-.72-.47-1.25.36-1.66Z"/><path class="cls-2" d="M72.48,233.73c-2.19,1.71-4.38,3.42-6.58,5.13-1.15.9-2.3,1.8-3.49,2.73-.34-.68.08-1.22-.04-1.76,2.21-1.33,4.06-3.13,6.14-4.64.87-.63,1.72-1.31,2.61-1.92.82-.56,1.11-.32,1.36.46Z"/><path class="cls-2" d="M260.21,231.54c1.59,2.42,2.69,5.1,4.06,7.63.76,1.41,1.46,2.86,2.25,4.41-.81-.01-1.31-.48-1.89-.73.07-.48-.22-.84-.42-1.23-1.46-2.86-2.91-5.71-4.39-8.56-.35-.67-.47-1.2.38-1.53Z"/><path class="cls-2" d="M259.53,245.4c-.27-.51-.54-1.02-.99-1.85,4.19,2.04,8.06,3.92,11.92,5.79-.33.8-.79.88-1.59.49-3.09-1.52-6.23-2.96-9.35-4.43Z"/><path class="cls-2" d="M109.18,277.61c.24-.41.48-.82.72-1.24.12-.2.17-.5.48-.45.29.05.3.34.33.57.33,2.34.65,4.69.98,7.04.08.56.16,1.11.24,1.67-1.07-.2-1.44-.89-1.53-1.93-.13-1.55-.41-3.08-.62-4.62-.06-.44-.04-.9-.6-1.04Z"/><path class="cls-2" d="M36.87,189.3c-1.03.28-2.07.57-3.1.85q-.7-1.37.65-1.79c.19-.06.38-.13.57-.19q1.52-.49,1.88,1.13Z"/><path class="cls-2" d="M301.91,197.07c-.01-.25.14-.37.35-.45.02.25-.13.38-.35.45Z"/><path class="cls-2" d="M243.57,268.04c2.38-4.25,1.17-8.65-2.88-10.72-1.41-.72-2.88-.56-4.36-.56,1.85-1.29,4.42-1.3,6.45-.03,3.15,1.98,4.59,6.02,3.13,8.97-.5,1.01-1.09,2.03-2.34,2.33Z"/><path class="cls-2" d="M90.5,270.73c4.84.88,8.18-1.12,9.27-5.53.42-1.69,0-3.23-.64-4.76,1.34.85,1.76,2.24,1.92,3.67.4,3.57-2.88,7.55-6.44,7.85-1.5.13-2.92-.22-4.11-1.22Z"/><path class="cls-2" d="M99.03,260.33c-.18-.04-.31-.14-.31-.35.16.07.32.13.31.35Z"/><path class="cls-2" d="M221.13,280.15c1.06-1.25,2.12-2.48,2.2-4.26.17-4.08-2.21-6.85-6.66-7.65,1.16-.74,2.42-.73,3.69-.4,2.4.61,4.52,3.22,4.84,5.92.3,2.6-.84,4.8-3.19,6.12-.28.16-.54.37-.89.27Z"/><path class="cls-2" d="M220.67,280.42c.09-.21.23-.33.47-.28-.07.24-.25.3-.47.28Z"/><path class="cls-2" d="M70.99,255.27c4.84,1.74,9.04-.69,9.75-5.62.14-.96-.31-1.8-.3-2.72,1.58,1.21,2.08,3.81.92,5.59-.84,1.29-1.74,2.57-3.1,3.44-2.43,1.54-5.24,1.3-7.26-.69Z"/><path class="cls-2" d="M112.77,273.61c3.08-.36,4.07-2.55,2.34-5.17,2.01.81,2.68,2.33,1.81,4.06-.83,1.64-2.45,2.08-4.16,1.1Z"/><path class="cls-2" d="M131.16,279.13c.38-.51.77-1.02,1.15-1.52.12-.15.23-.35.47-.3.26.06.39.24.41.52.16,1.95.32,3.9.5,5.85.05.53-.21.63-.64.51-.42-.11-.83-.26-1.25-.39-.33-1.54-.02-3.18-.65-4.68Z"/><path class="cls-1" d="M219.51,232.61c-.26,1.76-.45,3.21-.99,4.61-1.07,2.75-3.79,3.45-5.62,2.88-1.01-.32-1.71-1-2.24-1.89-1.92-3.24-1.38-8.72,1.14-11.53,1.47-1.63,3.45-1.87,5.27-.61.39.27.73.59,1.19.96.26-1.05.25-2.05.6-2.98.33-.87.67-1.72,1.24-2.45,1.3-1.67,2.79-2.04,4.66-1.08,1.3.67,2.3,1.6,2.76,3.1.73,2.4.88,4.8.37,7.23-.42,2.02-1.55,3.48-3.63,4.01-2,.5-3.51-.31-4.76-2.24ZM217.01,232.65c.07-1.29-.11-2.57-.51-3.79-.32-1-1.12-1.67-2.14-1.81-1.04-.14-1.37.76-1.73,1.54-.58,1.27-.8,2.6-.77,3.97.04,1.79.41,3.5,1.44,5,.52.76,1.2,1.01,1.92.37.57-.5,1.15-1,1.35-1.85.27-1.14.48-2.27.43-3.44ZM220.61,226.83c.02,1.85.59,3.54,1.6,5.07.35.53.74,1.09,1.52.99.78-.1,1.24-.67,1.43-1.32.88-3.01.51-5.94-.79-8.75-.33-.71-1.09-1.14-1.9-1.04-.73.1-1.08.71-1.33,1.4-.43,1.19-.59,2.4-.53,3.64Z"/><path class="cls-1" d="M194.4,246.16c1.76-.48,3.51-.98,5.27-1.44.73-.19,1.73.49,1.91,1.22.1.43-.2.43-.47.51-3.29,1.08-6.69,1.83-9.95,3.02-.65.24-1.23-.49-.89-1.16,1.36-2.64,2.89-5.17,5.04-7.26,1.12-1.09,2.13-2.28,3.03-3.56.23-.33.53-.76.11-1.2-.37-.39-.81-.27-1.23-.14-1.08.35-1.7,1.27-2.47,2.01-.46.44-.83.97-1.26,1.45-.25.28-.55.39-.74-.06-.17-.43-.4-.75-.89-.88-.46-.12-.27-.4-.09-.63,1.28-1.64,2.52-3.31,4.63-4.04,1.03-.36,2.06-.51,3.05-.12.65.26.87.16,1.17-.43.44-.86,1.11-1.57,1.88-2.17,1.55-1.22,3.26-1.29,4.98-.48,1.68.79,1.51,2.43,1.51,3.88,0,1.12-.28,2.22-.76,3.26-1.04,2.23-1.65,4.66-3.24,6.64-.48.6-.87.87-1.58.34-.37-.27-.45-.49-.24-.88.95-1.78,1.37-3.82,2.62-5.46.08-.1.11-.31.05-.42-.09-.17-.28-.1-.42-.02-.56.3-1.1.67-1.68.91-.99.42-2,.66-2.92-.17-.25-.22-.45-.29-.7,0-1.81,2.08-3.64,4.14-5.43,6.24-.21.24-.47.55-.3,1.03ZM206.87,233.8c.23-.81-.14-1.49-.86-1.86-.73-.37-1.46-.08-2.11.42-1.22.93-1.79,2.18-1.93,3.68-.11,1.11.4,1.59,1.46,1.25,1.03-.34,1.82-1.09,2.71-1.68.64-.42.85-1.02.73-1.81Z"/><path class="cls-1" d="M111.72,234.74c1.72.86,3.18,1.85,4.67,2.8,1.07.68.63,1.47.47,2.26-.08.42-.47.33-.78.12-2.86-1.92-5.89-3.55-8.84-5.33-.23-.14-.5-.26-.32-.65.18-.4.27-.75.83-.88,2.08-.48,4.17-.84,6.3-.91,2.01-.06,4.02-.1,6.02-.17.44-.01.91-.02,1.3-.18.72-.29.9-.78.24-1.36-.6-.53-1.3-.76-2.1-.73-.96.04-1.92.09-2.89.09-.49,0-1.07-.06-.57-.81.07-.1.16-.25.13-.33-.66-1.65.63-1.11,1.33-1.16,1.73-.14,3.42.02,5.05.7,1.35.56,2.14,1.54,2.38,2.93.27,1.58-.62,2.74-2.26,2.95-2.36.29-4.74.07-7.1.12-1.27.03-2.54.04-3.88.55Z"/><path class="cls-1" d="M152.94,244.36c2.79,1.88,2.81,3.19-.03,4.92-3.05,1.86-6.31,1.88-9.55.47-1.28-.56-1.49-2.44-.42-3.35.73-.62,1.65-.91,2.61-1.06,1.1-.17.57.81.85,1.21.39.56-.3.43-.55.55-.51.25-1.4.2-1.31.95.07.58.87.57,1.41.67,1.58.3,3.13.18,4.61-.44.75-.31,1.51-.73,1.51-1.68,0-1.04-.85-1.35-1.65-1.66-.22-.09-.46-.13-.68-.22-.29-.12-.86,0-.77-.52.07-.43.19-.94.83-.99,1.41-.12,2.71-.67,4.02-1.14.64-.23,1.32-.57,1.22-1.27-.11-.8-.93-.72-1.57-.72-1.34-.01-2.6.43-3.89.69-.26.05-1.02.31-.81-.13.27-.58-.88-1.22.25-1.67,1.9-.76,3.84-1.17,5.87-.88,1.27.19,2.03,1.12,2.48,2.21s-.21,1.93-1,2.61c-.95.82-2.09,1.27-3.44,1.44Z"/><path class="cls-1" d="M165.51,245.22c2.7,1.83,2.69,3.65-.1,5.37-2.46,1.52-5.21,2.04-8.1,1.48-1.36-.26-2.16-1.36-1.97-2.57.19-1.19,1.89-2.51,3-2.36.74.09.26.9.76,1.22.3.2-.23.33-.43.45-.52.32-1.54.39-1.36,1.1.17.68,1.15.55,1.81.55,1.85,0,3.56-.51,5.09-1.58.96-.68.89-1.7-.12-2.26-.69-.38-1.44-.46-2.16-.67-.25-.07-.74.18-.69-.37.04-.4-.04-.85.61-1,.81-.19,1.56-.59,2.35-.84.74-.23,1.38-.63,1.99-1.09.37-.29.83-.64.62-1.19-.23-.6-.81-.57-1.34-.51-1.41.16-2.71.67-4.03,1.16-.26.1-.94.47-.85.08.15-.63-1.14-1.23.09-1.84,1.49-.74,3-1.29,4.65-1.56,1.45-.23,2.5.41,3.41,1.36.71.74.78,1.63.18,2.54-.82,1.25-2,2.01-3.42,2.53Z"/><path class="cls-1" d="M171.85,248.24c-.1.16-.13.24-.18.29-.44.53-1.4.99-.98,1.74.45.81,1.43.32,2.09.12,1.5-.45,2.91-1.12,3.89-2.45,1.06-1.44.74-2.32-.97-2.79-1.11-.3-2.19-.19-3.2.17-.84.3-.78-.47-1.15-.7-.47-.3-.21-.62,0-.9,1.09-1.46,2.07-3.01,3.4-4.3.47-.45.93-.67,1.55-.73,1.75-.19,3.49-.43,5.25-.61.29-.03.95-.17.75.39-.25.7.26.97.76,1.5-2,.21-3.72.47-5.46.54-.84.03-1.3.31-1.7,1.01-.41.7-.79,1.45-1.54,2.1,1.09.1,2.08.01,3.05.27,2.11.57,2.85,2.04,1.95,4.02-.6,1.33-1.57,2.32-2.86,2.99-1.92,1-3.97,1.55-6.14,1.29-1.48-.18-2.39-1.08-2.26-2.05.14-1.02,1.74-2.14,2.93-2.03.24.02.47.06.83.12Z"/><path class="cls-1" d="M115.37,223.79c-2.43-.02-4.82-.58-7.42-.02.88.53,1.61.94,2.16,1.58,1.4,1.61,1.04,3.9-.87,4.86-2.7,1.35-5.45,1.08-8.08-.13-1.41-.65-2.11-1.96-1.95-3.56.15-1.58,1.11-2.69,2.49-3.28,3.84-1.65,7.88-1.58,11.94-1.15,1.14.12,1.04,1.23,1.72,1.71ZM105.33,228.91c1.18.09,2.15-.2,3.02-.84.55-.41.83-1.02.42-1.56-.68-.88-1.53-1.58-2.75-1.72-1.65-.19-2.95.57-4.25,1.35-.71.42-.74,1.28-.04,1.64,1.15.61,2.28,1.37,3.6,1.13Z"/><path class="cls-1" d="M134.46,233.7c-2.35.39-4.74.38-6.98,1.42.26.5.77.41,1.13.56,1.23.52,2.28,1.2,2.49,2.65.22,1.57-.48,2.7-1.82,3.49-2.25,1.33-4.67,1.68-7.19,1.07-2.36-.57-3.43-3.21-2.22-5.36.71-1.26,1.79-2.07,3.12-2.68,2.42-1.11,4.92-1.89,7.54-2.33,1.45-.25,2.91-.48,3.93,1.19ZM124.28,241.08c1.8,0,3.49-.69,4.3-1.66.35-.43.73-.87.34-1.5-.46-.75-2.45-1.46-3.3-1.3-1.23.23-2.2.92-3.19,1.57-.53.34-1.04.87-.94,1.57.1.68.7.9,1.33,1.02.59.1,1.17.25,1.47.31Z"/><path class="cls-1" d="M141.87,243.38c-2.18-.32-4.2-.63-6.22-.89-.62-.08-.56-.31-.26-.66.62-.71,1.21-1.25,2.34-.92,1.41.41,2.91.51,4.36.81.35.07,1.15-.17.94.48-.15.46-.32,1.44-1.16,1.19Z"/><path class="cls-1" d="M187.78,242.46c-.15.83-.15,1.49-1.13,1.74-1.85.47-3.66,1.13-5.47,1.76-.7.25-.76.02-.63-.58.19-.9.59-1.48,1.58-1.72,1.62-.39,3.2-.95,4.81-1.41.32-.09.83-.44.84.2Z"/><path class="cls-1" d="M230.13,89.82c.62.45,1.09.82,1.59,1.14.46.3.21.6.07.92-.26.57-.57.11-.72-.04-1.72-1.74-3.6-1.34-5.55-.48-.37.17-.89.72-1.21.04-.33-.68.11-1.08.78-1.33,1.7-.65,3.41-1.25,5.19-1.67.28-.06.7-.09.73-.34.15-1.41.8-.62,1.32-.32,1,.59,2,1.19,2.98,1.81.3.19.78.45.67.78-.37,1.15.56,1.16,1.15,1.58,1.05.74,2,1.61,3,2.41.5.4.12.77.03,1.15-1.7-.42-2.73-2.88-5.03-1.37.52.46,1.02.94,1.56,1.37.2.16.66.22.25.52-.21.16-.31.77-.82.4-.46-.33-1.02-.54-1.4-.94-1.26-1.35-2.58-.76-4.02-.27.5.73,1.24,1.01,1.79,1.51.89.8,1.4,2.19,3,1.93.22-.03.53.17.6.5-.04.07-.06.16-.11.18-.43.17-1.14-.3-1.3.2-.17.55.58.76.97,1.07.7.56,1.51.92,2.4.99.71.06,1.09-.2.7-1-.25-.5-.46-1.03-.62-1.56-.39-1.29.32-2.07,1.63-1.8,1.47.31,2.62,1.15,3.7,2.16.47.44.61.94.39,1.52-.18.46-.58.39-.92.25-.56-.22-1.29-.27-1.32-1.13-.03-.69-1.26-1.62-1.91-1.48-.46.1-.3.38-.18.63.24.51.52,1,.74,1.51.54,1.26.15,1.98-1.2,2.26-1.73.36-4.91-1.1-5.75-2.64-.04-.07-.1-.15-.1-.22.18-1.85-1.48-2.24-2.49-3.13-.45-.4-.95-.74-1.42-1.11-.81-.65-.78-1.02.11-1.6.61-.4,1.34-.5,2-.76,1.21-.47,2.48-.63,3.74-.86.56-.1.6-.4.76-.85.24-.69-.36-.46-.54-.63-.41-.38-.93-.64-1.34-1.02-1.16-1.12-2.41-.97-3.88-.28Z"/><path class="cls-1" d="M74.35,131.64c-.91-.87-1.8-1.77-2.74-2.61-.63-.57-.85-1.14-.28-1.92,1.17.97,2.34,1.94,3.53,2.9.31.25.64.48.98.68.28.17.59.29.89.02.33-.3.27-.66.09-.99-.42-.79-1.03-1.43-1.67-2.05-.89-.87-1.81-1.71-2.72-2.57-.64-.61-.98-1.24-.18-2.01.14-.13.13-.44.15-.67.07-1.11.47-2.09,1.12-2.97.46-.64.98-1.22,1.88-1,.88.21,1.43.75,1.69,1.66.27.92.12,1.81.07,2.77,1.47-.15,2.66-2.03,4.31-.55-1.33.65-2.61,1.28-3.97,1.94.34.62.92,1,1.37,1.48.35.38.94.63.29,1.31-.73.76-.97-.04-1.3-.34-1.1-1-2.14-2.07-3.23-3.08-.25-.23-.49-.88-.89-.48-.4.39-.43.99.17,1.46.76.6,1.46,1.26,2.17,1.91.8.73,1.49,1.57,2.02,2.52.54.98.53,1.92-.26,2.77-.78.85-1.64.6-2.53.18-.31-.15-.57-.46-.97-.39v.02ZM75.69,122.97c.18-.98.5-1.88.04-2.74-.17-.32-.35-.79-.88-.51-.59.31-.76,1.55-.31,2.05.37.41.76.8,1.14,1.21Z"/><path class="cls-1" d="M260.53,133.66c-2.42-.52-4.8-1-7.15-1.57-.82-.2-.91-.02-.71.71.27.98.84,1.91.59,3.01-.07.31.27.18.42.25.4.2.79.41,1.05.79.18.27.6.56.3.91-.36.42-.48-.19-.73-.28-.18-.06-.39-.19-.55-.15-.23.05-.23.32-.17.5.34,1.11.71,2.23,1.73,2.94.51.36.96.45,1.05-.42.07-.64.17-1.28.35-1.89.34-1.14,1.4-1.55,2.34-.84,1.46,1.11,2.05,2.72,2.3,4.48.06.44-.17.8-.59.94-.44.16-.79-.09-1.02-.44-.28-.45-.76-.86-.38-1.49.33-.55-.21-1.98-.82-2.21-.56-.21-.42.28-.53.53-.31.74.06,1.56-.57,2.33-.73.89-1.41.91-2.29.55-1.93-.8-3.42-3.9-2.78-5.86.12-.36-.07-.51-.16-.73-.59-1.4-1-2.86-1.28-4.35-.13-.72.11-1.04.8-.9,2.54.5,5.1.91,7.58,1.68.73.23,1.17.61,1.23,1.52Z"/><path class="cls-1" d="M135.76,71.41c.46-1.59.43-3.15.85-4.63.06-.23.15-.45.21-.68.13-.45.51-.33.8-.31.47.04.24.42.22.65-.22,2.39-.44,4.78-.67,7.17-.04.39,0,.84-.56.92-.52.07-.95-.02-1.19-.56-.57-1.25-1.14-2.5-1.84-4-.12,1.38-.23,2.47-.31,3.56-.05.63-.09,1.24-.37,1.85-.18.4-.18.71-.75.63-.54-.08-.64-.39-.66-.82-.1-1.86.23-3.68.51-5.5.09-.55.21-1.1.33-1.65.16-.71.85-.69,1.33-.82.48-.13.45.46.58.75.53,1.14,1.02,2.29,1.52,3.44Z"/><path class="cls-1" d="M152.46,67.97c.57-1.61,1.19-3.08,1.92-4.52.25-.49.53-.85,1.08-.66.67.24.11.68.03.97-.63,2.26-1.14,4.56-2.11,6.71-.17.39-.26.73-.81.68-.5-.04-.84-.2-.96-.7-.24-.97-.48-1.94-.71-2.91-.08-.35-.06-.72-.41-1.12-.46,1.67-.87,3.27-1.36,4.85-.08.27.04.93-.66.73-.52-.15-.8-.4-.7-1.01.39-2.35,1.22-4.57,2.08-6.77.2-.53.71-.66,1.19-.69.61-.03.46.54.55.89.3,1.19.58,2.38.87,3.57Z"/><path class="cls-1" d="M251.35,121.9c1.56.39,2.8.16,4,.3.48.05.95.1,1.42.18.54.08.65.34.63.78-.03.54-.45.31-.69.31-2.57-.06-5.13-.14-7.7-.22-.27,0-.59.06-.65-.35-.06-.4-.15-.83.28-1.08.65-.39,1.32-.74,1.99-1.09.66-.34,1.32-.66,1.96-1.2-1.81,0-3.63,0-5.44,0-.35,0-.89.19-.82-.52.05-.47.17-.8.78-.84,2.5-.19,4.97.02,7.45.27.62.06.94.48,1.09.98.19.68-.52.59-.84.76-1.02.57-2.09,1.06-3.45,1.74Z"/><path class="cls-1" d="M157.14,64.25c-.51-.02-.95.33-1.13-.28-.14-.5.25-.62.52-.82,1.02-.76,2.21-.98,3.42-.8,1.95.28,3,1.97,2.53,3.91-.64,2.64-3.99,5.05-6.74,4.84-.91-.07-.9-.55-.64-1.24.68-1.83,1.33-3.66,2.04-5.61ZM156.72,69.58c2.88-.09,3.97-2.28,4.28-4.1.15-.85-.35-1.4-1.2-1.67-.96-.31-1.15.33-1.39.98-.56,1.57-1.11,3.13-1.7,4.79Z"/><path class="cls-1" d="M74.34,131.61c-.41.56.23.64.44.85.96.98,1.84,2.01,2.05,3.43.33,2.26-1.3,3.78-3.42,3.01-2.12-.77-3.84-2.11-4.56-4.4-.32-1.03-.47-2.05.45-2.89,1-.9,2.14-.84,3.35-.53.58.15.96.93,1.7.55,0,0-.01-.02-.01-.02ZM70.96,132.16c-.89.05-1.23.47-1,1.27.6,2.05,2.08,3.2,4.03,3.85.46.15,1,.38,1.34-.02.39-.46.25-1.08-.06-1.58-.93-1.5-2.24-2.58-3.8-3.38-.17-.09-.37-.11-.51-.15Z"/><path class="cls-1" d="M222.81,83.16c1.35-.2,2.7-.42,4.07-.14,1.07.22,2.03.66,2.24,1.86.22,1.25-.17,2.3-1.31,2.99-1.77,1.06-3.69,1.53-5.73,1.28-1.28-.15-2.24-.91-2.56-2.22-.29-1.18.43-1.95,1.25-2.66.42-.37,1.04-.43,1.37-.92,0,0-.05.04-.05.04.26-.06.6.07.77-.26l-.05.04ZM225.76,84.24c-1.66-.06-2.95.51-4.04,1.55-.35.34-.95.7-.73,1.27.24.63.93.72,1.54.71,1.26-.03,2.41-.45,3.54-.98.8-.38,2.07-.53,1.9-1.62-.18-1.13-1.48-.78-2.22-.92Z"/><path class="cls-1" d="M78.29,111.16c-.39,2.51,1.39,5.47,3.39,5.87.77.16,1.29-.08,1.44-.86.15-.81-.12-1.51-.8-1.99-.3-.21-.42.11-.5.31-.39.93-.73.38-.97-.06-.39-.7.59-3.19,1.33-3.38.24-.06.58.01.8.14.19.11.05.37-.07.52-.62.79,0,1.21.47,1.71,1.29,1.35,1.41,2.31.49,3.75-1,1.58-2.73,1.87-4.21.56-2.01-1.78-3.08-3.99-2.54-6.76.07-.35.16-.76.39-.99.35-.35.65-1.07,1.34-.64.74.46,1.12,1.39.93,2.05-.21.72-.95.33-1.49-.25Z"/><path class="cls-1" d="M249.6,117.24c-1.4-.05-2.78-.2-4.03-.92-1.38-.8-2.05-2.09-1.73-3.37.24-.96,1.4-1.72,2.82-1.86,1.96-.19,3.83.07,5.48,1.21.98.67,1.68,1.52,1.32,2.83-.32,1.16-1.34,1.94-2.66,2.06-.4.03-.8.04-1.2.06ZM249.81,115.67c.49-.07,1-.17,1.52-.22.48-.05.84-.18,1.01-.69.18-.56-.2-.82-.54-1.08-1.79-1.42-3.76-1.4-5.79-.63-.35.13-.85.22-.89.7-.05.56.4.87.8,1.11,1.19.7,2.55.61,3.89.82Z"/><path class="cls-1" d="M240.72,104.52c-.53.45-1.35-.41-1.52.29-.13.56.67.9,1.09,1.31.2.19.45.33.68.49.58.39,1.25.86,1.87.39.63-.48-.13-1.06-.22-1.6-.06-.43-.2-.85-.24-1.29-.08-1.01.54-1.46,1.41-1.31,1.91.33,3.24,1.62,4.51,2.97.28.29.16.67-.01,1.01-.19.38-.52.34-.83.27-.82-.19-1.77-.23-1.5-1.54.08-.4-1.39-1.39-1.85-1.34-.52.06-.4.37-.28.7.2.52.44,1.04.58,1.57.37,1.34-.12,2.01-1.48,2.06-2.08.07-3.53-1.09-4.81-2.53-.51-.57-.81-1.33-.27-1.97.52-.62,1.29-.46,2-.18.35.14.64.31.87.69Z"/><path class="cls-1" d="M96.66,95.2c.34.48-.16,1.24.38,1.35.64.13.77-.67,1.09-1.09.17-.22.27-.49.4-.74.32-.66.74-1.42.13-2-.56-.54-1.02.33-1.56.46-.15.04-.28.15-.43.21-.67.28-1.37.64-2.04.08-.66-.55-.47-1.33-.3-2.03.3-1.19.95-2.2,1.72-3.14.39-.48.89-.67,1.5-.42.53.22.41.66.27,1.02-.19.51-.18,1.22-1.04,1.21-.62,0-1.5,1.54-1.19,2.05.22.37.48.13.71,0,.49-.28.94-.62,1.45-.86,1.39-.67,2.38-.1,2.5,1.44.13,1.79-.59,3.3-1.71,4.62-.57.67-1.31,1.17-2.19.5-.71-.54-.55-1.8.31-2.66Z"/><path class="cls-1" d="M130.5,68.44c-.97,1.4-3.54,1.33-3.11,3.91.7-.33,1.33-.58,1.91-.91.47-.27.67.07.87.34.27.36-.13.44-.32.58-.39.28-.76.65-1.19.8-1.7.6-1.71,1.99-1.76,3.46.64.11.98-.36,1.4-.59.64-.34,1.24-.73,1.96-.88.37-.08.59.05.75.4.2.44-.19.47-.39.59-1.24.74-2.49,1.46-3.74,2.19-.81.47-1.19.07-1.34-.7-.16-.84-.06-1.68.03-2.52.09-.88-.09-1.77.38-2.65.22-.4.41-1.22-.46-1.6-.47-.2-.15-.54.15-.7,1.26-.69,2.53-1.36,3.79-2.06.55-.31.77.18,1.09.35Z"/><path class="cls-1" d="M253.07,128.22c-.51-1.11-.98-2.05-2.27-2.11-.19,0-.38-.11-.56-.19-.45-.21-1.3-.15-1.16-.84.16-.79.96-.46,1.53-.47,1.47-.03,2.65.81,3.95,1.29,1.35.5,2.69,1.02,4.02,1.56.25.1.56.25.67.47.25.48.55,1.02-.45,1.12-2.43.24-4.86.53-7.28.86-.61.08-.8-.24-.94-.66-.16-.49.28-.58.59-.74.55-.3,1.17-.21,1.91-.29ZM256.8,127.79c-.94-.31-1.89-.61-2.91-.94.42,1.99,1.88.83,2.91.94Z"/><path class="cls-1" d="M147.29,67.92c0,1.12-.04,2.25.02,3.36.03.61-.32.76-.75.88-.61.17-.52-.45-.74-.72-.06-.08,0-.24-.04-.35-.18-.45.33-1.31-.27-1.34-.62-.03-1.4.32-1.82.97-.4.63-.7,1.32-1.09,1.96-.16.26-.21.76-.71.57-.46-.19-.63-.54-.51-1.07.34-1.44.86-2.81,1.75-3.96.73-.94,1.22-2,1.82-2.99.23-.37.51-.72.76-1.08.27-.38.73-.43,1.08-.38.5.08.23.59.24.89.04,1.08.01,2.16.01,3.25.08,0,.15,0,.23,0ZM145.61,65.96c-.44.98-.8,1.8-1.2,2.68,1.28-.07,1.59-.09,1.2-2.68Z"/><path class="cls-1" d="M70.97,140.46c-1-.77-1.66-1.76-2.44-2.63-.83-.92-.79-.95-.45-2.31,1.15.97,2.09,2.1,2.99,3.18,1.21,1.46,2.66,2.36,4.32,3.11.28.12.96.16.53.78-.25.36-.54.89-1.12.44-1.82-1.43-3.86-1.36-5.99-.99-.3.05-1.03.49-1.11-.35-.07-.78.48-.91,1.11-.89.71.02,1.4-.12,2.16-.33Z"/><path class="cls-1" d="M251.3,110.07c-3.04.25-5.99.5-8.94.75-.42.03-.88.06-.87-.52,0-.4.19-.74.71-.81,2.63-.37,5.27-.59,7.93-.45.61.03.96.32,1.17,1.03Z"/><path class="cls-1" d="M179,63.53c-1.7,2.41-3,5.01-4.9,7.21-.27.31-.51.54-.89.27-.37-.26-.45-.58-.2-1.03,1.24-2.28,2.87-4.28,4.52-6.27.41-.49.85-.46,1.47-.18Z"/><path class="cls-1" d="M102.65,94.04c-.04.61.12,1.18-.5,1.24-.7.07-.48-.57-.59-.95-.1-.34-.25-.67-.31-1.02-.1-.58.38-.68.78-.81.59-.19.37.35.44.56.13.37.14.78.18.98Z"/><path class="cls-1" d="M192.26,70.24c1.37-1.77,3.32-2.4,5.42-2.54,1.47-.1,2.47.98,2.51,2.45.01.38,0,.77,0,1.25.47-.34.89-.68,1.33-.98.56-.38.93.21,1.68.22-.89.85-1.59,1.54-2.3,2.22-.12.1-.22.22-.06.36.16.14.27-.03.39-.1,1.16-.55,2.31-1.1,3.47-1.64.72-.34,1.45-.4,2.22.04-.39.84-1.23,1.18-1.83,1.77-.16.16-.43.31-.31.58.18.41.49.11.7.03,1.15-.46,2.3-.92,3.42-1.45.69-.33,1.29-.37,2.01.27-1.62.88-3.14,1.8-4.75,2.56-1.23.58-2.42,1.22-3.63,1.85-.48.25-.88.48-1.37-.07-.5-.57-.04-.84.23-1.21.38-.51.74-1.03,1.11-1.55.12-.35.01-.42-.29-.24-1.19.66-2.38,1.31-3.57,1.97-.44.24-.85.64-1.35.04-.4-.49-.41-.92.05-1.36.11-.11.2-.25.02-.51-.83.18-1.61.66-2.51.8-2.76.44-4.28-1.2-3.45-3.83.07-.08.14-.16.21-.23.05-.11.25-.23.08-.34-.19-.13-.19.1-.24.2-.16,0-.23.09-.25.23-2,1.74-4.37,2.02-6.88,1.72-1.1-.13-1.32-.69-.65-1.6,1.18-1.6,2.72-2.9,3.81-4.78-.96.27-.99-.35-.98-1.08-1.79,1.95-3.1,4.03-4.49,6.06-.19.28-.23.85-.85.56-.46-.21-.87-.41-.82-1.03.1-1.31.18-2.62.06-4.02-.86,1.31-1.7,2.64-2.6,3.93-.21.3-.21,1.06-1,.61-.68-.39-.45-.83-.21-1.31,1.02-2.07,2.47-3.83,3.91-5.61.39-.49.93-.52,1.42-.36.57.19.18.69.17,1.04-.04,1.18-.13,2.36.04,3.63.54-.81,1.09-1.61,1.62-2.42.44-.67.95-1.26,1.6-1.74.35-.26.61-.21.98-.08.62.22-.09.61.17.93,1.18-.44,2.38-.64,3.62-.27,2.04.61,2.84,2.18,2.15,4.2-.08.24-.61.58,0,.86,0-.16-.07-.27-.25-.22-.02,0-.06.06-.05.09.04.21.2.11.31.12ZM197.86,68.95c-2.04-.02-4.04,1.3-4.85,3.24-.15.36-.58.8-.17,1.21.4.4.93.39,1.47.24,1.87-.51,3.24-1.7,4.36-3.22.24-.32.32-.63.15-1-.21-.45-.58-.51-.95-.47ZM185.39,71.57c1.35.23,2.43.08,3.41-.54.96-.61,1.75-1.43,2.11-2.53.27-.85-.21-1.43-.96-1.84-.77-.43-.97.2-1.29.62-1.05,1.36-2.08,2.73-3.27,4.28ZM204.51,74.2c.08-.06.17-.12.25-.19-.05-.05-.12-.15-.15-.14-.11.03-.2.11-.31.17.06.05.12.09.2.16ZM200.63,73.33c-.06-.04-.11-.12-.17-.12-.07,0-.19.04-.2.08-.05.14.06.18.17.15.07-.02.13-.07.19-.12Z"/><path class="cls-1" d="M204.51,74.2c-.09-.07-.15-.11-.2-.16.1-.06.2-.13.31-.17.03-.01.1.09.15.14-.09.06-.17.13-.25.19Z"/><path class="cls-1" d="M200.63,73.33c-.07.04-.12.1-.19.12-.12.03-.22,0-.17-.15.02-.05.13-.09.2-.08.06,0,.11.08.17.12Z"/><path class="cls-1" d="M191.19,71.03c.02-.14.09-.24.25-.23.05.05.11.1.16.14-.07.08-.14.16-.21.23-.07-.05-.14-.09-.21-.14Z"/><path class="cls-1" d="M191.44,70.8c.05-.1.05-.33.24-.2.17.11-.03.23-.08.34-.06-.04-.11-.09-.16-.14Z"/><path class="cls-1" d="M192.26,70.24c-.12-.01-.28.09-.31-.12,0-.03.03-.08.05-.09.18-.04.24.06.25.22,0,0,0-.01,0-.01Z"/><path class="cls-1" d="M107.77,84.86c-.31-2.08-.28-3.94.37-5.75.36-.99.96-1.74,2.03-2.01.12-.03.28-.12.35-.07,1.23.9,1.62-.49,2.29-.92.85-.54,1.66-1.15,2.64-1.37.73-.17,1.54-.32,2.09.46.54.76.53,1.54.15,2.38-.38.86-1.24,1.34-1.69,2.18,1.17.51,2.53.27,3.63,1.19-.65-1.4.31-2.94-.52-4.31-.19-.3.21-.37.26-.56.2-.83.99-1.75-.34-2.39-.44-.21-.27-.52.05-.74,1.18-.82,2.38-1.62,3.68-2.25.54-.26.89-.02,1.32.2-.46.85-1.33,1.18-2.06,1.59-1.03.58-1.23,1.34-.96,2.42.7-.33,1.4-.6,2.04-.97.48-.28.69.09.89.31.31.34-.12.49-.3.63-.44.33-.89.69-1.4.89-1.38.55-1.49,1.72-1.51,2.93-.01.61.22.85.79.39.75-.61,1.65-.95,2.51-1.38.42-.21.75-.25,1,.23.25.48-.22.55-.43.69-1.27.83-2.56,1.62-3.83,2.44-.26.17-.5.24-.78.09-.16-.09-.45-.29-.47-.04-.13,1.27-.92.3-1.37.43-.06.02-.15-.05-.23-.07-.82-.17-1.87-.71-2.4-.39-.64.38-.13,1.51-.05,2.3.08.75-.46.59-.85.7-.58.16-.57-.25-.61-.61-.17-1.72-.35-3.44-.51-5.16-.06-.63-.22-.84-.77-.33-.35.32-.71.78-1.21.12-.12-.16-.24.04-.24.22,0,.12.02.27-.04.36-.32.47.13,1.39-.7,1.5-1.04.14-.12-1.11-.93-1.29-.47.17-.54.76-.62,1.21-.22,1.35-.24,2.73.17,4.06.22.72.64,1.41,1.5,1.31.78-.08.88-.88.96-1.49.09-.67.02-1.35.02-2.07,1.13.13,1.25.92,1.29,1.64.05.89.35,1.95-.66,2.5-1.29.71-2.65.97-4.02-.31-.07,1.68-.61,3.02-1.52,4.21-.27.35-.57.68-.91.96-.61.49-1.34.98-2.04.33-.67-.62-.44-1.48-.11-2.25.12-.29.31-.52.63-.38.37.17-.04.39-.02.59.02.26-.15.6.2.74.26.1.45-.11.61-.29.65-.76,1.37-1.5,1.56-2.52.19-1.01-.12-1.22-1.09-.87-.64.23-1.24.56-1.94.6-1.11.07-1.61-.39-1.43-1.49.28-1.72,1.37-2.95,2.65-4.02.38-.32.83-.3,1.24-.02.46.31.26.73.1,1.08-.22.48-.34,1.09-1.1,1.06-.7-.03-1.69,1.18-1.51,1.82.18.68.59.18.83.08,1.02-.4,1.95-1.2,3.34-.53ZM114.92,78.87c1.13-.96,1.65-1.69,1.71-2.32.07-.67-.16-.9-.83-.66-1.19.43-1.34.88-.89,2.98ZM108.25,85.75s.07-.05.08-.07c0-.03-.04-.06-.06-.09-.03.04-.06.07-.09.11.02.02.05.03.07.05Z"/><path class="cls-1" d="M108.25,85.75l-.07-.05s.06-.07.09-.11c.02.03.07.06.06.09,0,.03-.05.05-.08.07Z"/><path class="cls-1" d="M90.84,102.74c.5-1.01,0-2.04,1.16-2.39.37.42-.13,1.27.55,1.32.56.04.69-.7.91-1.15.36-.71.76-1.44.6-2.28-.12-.61-.42-.98-1.07-.47-.7.55-1.47.95-2.34,1.16-.85.21-1.52-.24-1.58-1.11-.13-1.8.71-3.25,1.77-4.59.36-.45.9-.54,1.43-.29.52.25.42.72.3,1.16-.14.51-.1,1.12-.95,1.09-.7-.02-1.5,1.41-1.24,2.08.15.4.39.3.66.14.51-.31,1.02-.62,1.53-.94,1.45-.92,2.58-.42,2.85,1.28.36,2.26-.96,4.69-2.99,5.5-.22.09-.29.19-.38.38-.45.99-.91,1.04-1.85.35-.35-.26-.67-1.11-1-.74-.46.52-1,1.28-.53,2.17.2.39.4.81.46,1.24.06.51.86,1.4-.53,1.36-.14,0-.17.06-.18.2-.13,1.68-1.23,2.88-2.04,4.24-.47.78-.92.94-1.51.08-1.34-1.97-2.72-3.91-4.08-5.86-.14-.2-.25-.41-.33-.64-.16-.47.03-.96.35-1.17.48-.32.66.24.87.55,1.27,1.89,2.52,3.79,3.83,5.76,1.02-1.03.98-2.86,2.68-3.31-.54-.6-.4-1.64-1.34-2.17-.21-.12.11-.96-.07-1.53-.49-1.53-.83-3.1-1.21-4.66-.07-.3-.15-.68-.04-.94.21-.51.48-1.05,1.15-.31,1.36,1.52,2.79,2.99,4.18,4.48ZM87.63,103.19c1.2-1.38,0-1.86-.81-2.46.25.77.51,1.54.81,2.46ZM86.87,100.38s-.06-.04-.07-.04c-.1.04-.1.1,0,.15.02,0,.06-.01.07-.03.01-.02,0-.05,0-.07Z"/><path class="cls-1" d="M86.87,100.38s0,.06,0,.07c-.01.02-.06.04-.07.03-.1-.05-.1-.1,0-.15.02,0,.05.02.07.04Z"/><path class="cls-1" d="M222.14,83.35c-1.11-.02-2.22-.02-3.26-.46-.66-.28-.66.12-.57.56.12.55.31,1.08.42,1.62.15.75,0,1.37-.94,1.58-.26-1.08-.58-2.14-.77-3.23-.13-.72-.45-.74-.97-.46-.53.28-1.07.54-1.56.89-.58.4-.83.1-1.14-.34-.4-.57.09-.69.41-.87,1.47-.82,2.94-1.62,4.41-2.45.3-.17.66-.28.88-.69-.71-.38-1.16-.87-1.96.1-1.16,1.4-4.97.78-5.95-.82-.84.54-1.68,1.09-2.53,1.62-.39.24-.74.62-1.21.01-.49-.63-.02-.85.36-1.11,1.62-1.11,3.24-2.2,4.95-3.35-.25-.09-.42-.15-.59-.22-.23-.11-.66-.07-.58-.46.07-.35.31-.58.77-.62,2.27-.19,4.96,1.7,5.46,4.02.48-.8,1.09-.66,1.77-.45,1.14.35,2.14.91,2.97,1.74.83.82,1.19,1.72.26,2.73-.14.16-.24.33.03.47l.05-.04c-.42-.39-.61-.12-.77.26l.05-.04ZM214.85,79.13c.5-.27,1.39.08,1.64-.75.17-.57-1.89-1.96-2.39-1.6-.6.43-1.78.53-1.59,1.51.16.82,1.23.6,1.9.8.11.03.24.02.43.04ZM218.47,81.41c1.05.48,1.96.73,2.92.57.37-.06,1.06-.22.54-.8-.52-.58-1.13-1.31-2.09-.54-.36.29-.82.47-1.37.77Z"/><path class="cls-1" d="M222.86,83.13c-.17.33-.5.2-.77.26.15-.39.35-.65.77-.26Z"/><path class="cls-1" d="M169.58,66.95c-.96,1.08-1.93,2.14-2.86,3.24-.36.42-.68.62-1.21.28-.51-.33-.51-.69-.31-1.22.59-1.53,1.05-3.1,1.83-4.55.17-.32.36-.63.58-.91.35-.44.89-.29,1.22-.13.52.24-.01.59-.11.87-.21.61-.7,1.12-.82,1.99,1.88-.98,2.53-3.45,4.97-3.44-.39.99-.75,1.9-1.11,2.8-.13.17-.39.36-.2.55.25.24.33-.12.47-.25,1.13-.88,2.08-1.95,3.21-2.84.61-.48,1.1-.74,1.84-.36-1.15,1.8-2.93,3-4.24,4.64-.63.78-1.34,1.48-1.99,2.25-.39.46-.74.63-1.32.28-.57-.34-.32-.72-.2-1.12.17-.57.34-1.14.52-1.71.09-.2.24-.44.04-.61-.12-.1-.24.12-.31.25ZM167.62,66.52c.04.06.08.16.11.16.1,0,.22-.01.28-.07.12-.11-.02-.22-.09-.22-.1,0-.2.08-.3.13Z"/><path class="cls-1" d="M167.62,66.52c.11-.05.21-.13.3-.13.07,0,.21.11.09.22-.06.06-.18.07-.28.07-.03,0-.07-.09-.11-.16Z"/><path class="cls-2" d="M164.48,214.17c-19.96,0-39.91,0-59.87,0q-1.7,0-1.7-1.68c0-3.86.02-7.73-.02-11.59-.01-.88.21-1.2,1.14-1.16,1.81.07,3.62,0,5.43.03.67.01.98-.21.9-.9-.03-.28,0-.56,0-.84,0-33.12,0-66.23,0-99.35q0-1.59,1.53-1.59c35.04,0,70.09,0,105.13-.03,1.22,0,1.53.29,1.53,1.52-.04,33.12-.03,66.23-.03,99.35q0,1.82,1.88,1.82c1.53,0,3.06.02,4.59,0,.62-.01.96.09.96.84-.03,4.27-.02,8.53,0,12.8,0,.56-.17.83-.76.79-.32-.02-.64,0-.97,0-19.92,0-39.83,0-59.75,0ZM118.07,177.17c0,6.92.02,13.84-.02,20.76,0,.96.18,1.31,1.24,1.31,13.36-.04,26.72-.03,40.07,0,.94,0,1.22-.23,1.22-1.2-.03-13.84-.03-27.68,0-41.53,0-.99-.32-1.19-1.23-1.19-13.36.03-26.72.03-40.07,0-.94,0-1.23.24-1.22,1.2.04,6.88.02,13.76.02,20.64ZM160.55,126.22c0-6.84-.02-13.68.02-20.52,0-1.06-.21-1.43-1.37-1.43-13.27.04-26.55.04-39.82,0-1.05,0-1.35.26-1.35,1.34.04,13.72.03,27.43,0,41.15,0,1.03.21,1.37,1.32,1.37,13.31-.04,26.63-.04,39.94,0,1,0,1.28-.27,1.28-1.28-.04-6.88-.02-13.76-.02-20.64ZM210.81,126.21c0-6.92-.02-13.84.02-20.76,0-.9-.24-1.16-1.15-1.16-13.4.03-26.8.03-40.19,0-.96,0-1.2.28-1.2,1.22.03,13.8.03,27.6,0,41.41,0,.94.24,1.22,1.2,1.22,13.36-.03,26.72-.03,40.07,0,1.01,0,1.28-.28,1.28-1.28-.04-6.88-.02-13.76-.02-20.64ZM210.81,177.42c0-6.96-.02-13.92.02-20.88,0-.94-.25-1.22-1.21-1.22-13.35.03-26.71.03-40.06,0-.98,0-1.28.23-1.28,1.26.03,13.8.03,27.59,0,41.39,0,.99.24,1.27,1.25,1.27,13.31-.03,26.63-.04,39.94,0,1.18,0,1.36-.4,1.35-1.43-.04-6.8-.02-13.6-.02-20.39Z"/><path class="cls-2" d="M182.88,191.92c-.35-.02-.61-.19-.78-.49-.21-.37-.1-.71.18-.99.68-.69,1.33-1.4,2.06-2.03,3.61-3.07,6.8-6.58,10.32-9.74,2.39-2.14,4.69-4.37,7-6.59.45-.43.94-.91,1.54-.32.68.66.13,1.17-.34,1.61-5.34,5.09-10.68,10.19-16.04,15.26-1.01.96-2.08,1.87-3.12,2.8-.24.22-.47.44-.82.47Z"/><path class="cls-2" d="M192.67,176.86c-.06.38-.32.63-.59.88-4.81,4.55-9.62,9.11-14.43,13.66-.48.45-1,.79-1.56.19-.53-.57-.12-1.04.31-1.44,4.87-4.6,9.75-9.2,14.63-13.8.34-.33.72-.54,1.19-.29.31.16.45.44.46.79Z"/><path class="cls-2" d="M197.42,172.4c-.03.3-.23.5-.43.7-.71.76-1.49,1.44-2.35,2.03-.42.29-.85.28-1.2-.09-.38-.39-.29-.8.06-1.17.77-.81,1.59-1.58,2.52-2.2.34-.23.67-.22,1,.01.24.17.39.4.39.71Z"/></g></svg>